<svg width="20" height="22" viewBox="0 0 20 22" fill="none" xmlns="http://www.w3.org/2000/svg">
<path d="M6.8645 16.9744C5.5302 16.9744 4.44482 18.1015 4.44482 19.4872C4.44482 20.8729 5.53025 22 6.8645 22C8.1988 22 9.28418 20.8725 9.28418 19.4872C9.28422 18.1018 8.1988 16.9744 6.8645 16.9744ZM6.8645 20.4618C6.34722 20.4618 5.92626 20.0249 5.92626 19.4874C5.92626 18.95 6.34722 18.5131 6.8645 18.5131C7.38204 18.5131 7.80275 18.95 7.80275 19.4874C7.80275 20.0249 7.38204 20.4618 6.8645 20.4618Z" fill="#FF7A00"/>
<path d="M15.6544 16.9744C14.3198 16.9744 13.2344 18.1016 13.2344 19.4872C13.2344 20.8729 14.3198 22 15.6544 22C16.9884 22 18.0741 20.8728 18.0741 19.4872C18.0741 18.1016 16.9884 16.9744 15.6544 16.9744ZM15.6544 20.4616C15.1368 20.4616 14.7158 20.0244 14.7158 19.4872C14.7158 18.95 15.1368 18.5131 15.6544 18.5131C16.1717 18.5131 16.5926 18.9497 16.5926 19.4872C16.5926 20.0246 16.1719 20.4616 15.6544 20.4616Z" fill="#FF7A00"/>
<path d="M19.8576 4.98305C19.7181 4.78432 19.4959 4.66689 19.2591 4.66689H4.86243L4.31162 1.15844C4.26077 0.83484 4.0183 0.580508 3.70743 0.524347L0.867943 0.0115141C0.463732 -0.0613181 0.0812848 0.218968 0.0111509 0.637399C-0.0592312 1.05613 0.210919 1.45432 0.613847 1.52715L2.93406 1.94614L5.07134 15.5598C5.12985 15.9323 5.43922 16.2054 5.80243 16.2054H17.3332C17.7426 16.2054 18.0739 15.861 18.0739 15.4362C18.0739 15.0113 17.7423 14.6669 17.3332 14.6669H6.43235L6.11838 12.667H17.2594C17.5809 12.667 17.8661 12.451 17.9646 12.1331L19.9646 5.67154C20.0369 5.43741 19.9972 5.18153 19.8576 4.98305ZM16.7194 11.1285H5.87683L5.10395 6.20534H18.2431L16.7194 11.1285Z" fill="#FF7A00"/>
</svg>
