<svg width="50" height="50" viewBox="0 0 50 50" fill="none" xmlns="http://www.w3.org/2000/svg">
<g clip-path="url(#clip0)">
<path d="M49.5885 6.31025C49.5588 6.28232 43.6857 0.68125 43.6857 0.68125C43.4612 0.46582 43.2289 0.243164 42.7953 0.243164H19.1508C18.4602 0.243164 17.8983 0.80498 17.8983 1.49561V5.3416L9.56477 6.77012C8.8968 6.8873 8.44758 7.52656 8.5633 8.19385L8.98625 10.6599C6.27756 11.5714 3.4966 12.511 0.811936 13.4754C0.177562 13.7073 -0.155349 14.4127 0.0710185 15.0509L5.41135 29.8962C5.51877 30.1949 5.80032 30.381 6.10061 30.381C6.18284 30.381 6.26662 30.367 6.34846 30.3375C6.72912 30.2006 6.92668 29.7811 6.78977 29.4004L1.52844 14.7746C4.05774 13.869 6.67707 12.9827 9.23694 12.1211L11.7536 26.7935L14.6495 43.6911C14.7541 44.2876 15.2784 44.712 15.8702 44.712C15.9372 44.712 16.0052 44.7065 16.0734 44.6953L23.9167 43.3493L30.0456 42.2987L20.8278 45.6119L13.5587 48.2255L7.9134 32.5234C7.77658 32.1428 7.35715 31.9452 6.97639 32.082C6.59573 32.2188 6.39817 32.6384 6.53498 33.019L12.2604 48.9442C12.4435 49.445 12.9179 49.7563 13.4194 49.7563C13.5579 49.7563 13.6987 49.7325 13.8358 49.6824L21.3232 46.9904L38.3245 40.8797L41.5725 40.3229H48.7474C49.438 40.3229 49.9999 39.7599 49.9999 39.0677V7.13555C50 6.69717 49.7621 6.47354 49.5885 6.31025ZM47.648 6.48369H43.9829L43.8921 6.48408C43.7166 6.48525 43.3058 6.48828 43.2016 6.38477C43.1776 6.36084 43.1494 6.28096 43.1494 6.13262L43.1409 2.18584L47.648 6.48369ZM48.5352 38.8579H19.3631V24.5838C19.3631 24.1793 19.0352 23.8514 18.6307 23.8514C18.2262 23.8514 17.8983 24.1793 17.8983 24.5838V39.0675C17.8983 39.7596 18.4602 40.3228 19.1508 40.3228H32.902L23.6691 41.9054L16.0536 43.2123L13.1974 26.5458L10.0461 8.17373L17.8982 6.82773V21.1854C17.8982 21.5898 18.2261 21.9178 18.6306 21.9178C19.0351 21.9178 19.363 21.5898 19.363 21.1854V1.70791H41.675L41.6846 6.13428C41.6846 6.6708 41.8478 7.10479 42.1696 7.42432C42.664 7.91523 43.3629 7.94941 43.7968 7.94941C43.8341 7.94941 43.8695 7.94912 43.9026 7.94893L48.5352 7.94863V38.8579Z" fill="#E5E5E5"/>
<path d="M22.8945 11.6162C22.8945 12.0207 23.2225 12.3486 23.627 12.3486H44.568C44.9725 12.3486 45.3004 12.0207 45.3004 11.6162C45.3004 11.2117 44.9725 10.8838 44.568 10.8838H23.627C23.2225 10.8838 22.8945 11.2117 22.8945 11.6162Z" fill="#E5E5E5"/>
<path d="M44.568 16.0869H23.627C23.2225 16.0869 22.8945 16.4148 22.8945 16.8193C22.8945 17.2238 23.2225 17.5518 23.627 17.5518H44.568C44.9725 17.5518 45.3004 17.2238 45.3004 16.8193C45.3004 16.4148 44.9725 16.0869 44.568 16.0869Z" fill="#E5E5E5"/>
<path d="M44.568 21.29H23.627C23.2225 21.29 22.8945 21.618 22.8945 22.0225C22.8945 22.427 23.2225 22.7549 23.627 22.7549H44.568C44.9725 22.7549 45.3004 22.427 45.3004 22.0225C45.3004 21.618 44.9725 21.29 44.568 21.29Z" fill="#E5E5E5"/>
<path d="M44.568 26.4932H23.627C23.2225 26.4932 22.8945 26.8211 22.8945 27.2256C22.8945 27.6301 23.2225 27.958 23.627 27.958H44.568C44.9725 27.958 45.3004 27.6301 45.3004 27.2256C45.3004 26.8211 44.9725 26.4932 44.568 26.4932Z" fill="#E5E5E5"/>
<path d="M44.568 31.6973H23.627C23.2225 31.6973 22.8945 32.0252 22.8945 32.4297C22.8945 32.8342 23.2225 33.1621 23.627 33.1621H44.568C44.9725 33.1621 45.3004 32.8342 45.3004 32.4297C45.3004 32.0252 44.9725 31.6973 44.568 31.6973Z" fill="#E5E5E5"/>
</g>
<defs>
<clipPath id="clip0">
<rect width="50" height="50" fill="white"/>
</clipPath>
</defs>
</svg>
