<svg width="50" height="50" viewBox="0 0 50 50" fill="none" xmlns="http://www.w3.org/2000/svg">
<g clip-path="url(#clip0)">
<path d="M40 15.5176H41.6668V18.8511H40V15.5176Z" fill="#E5E5E5"/>
<path d="M36.666 15.5176H38.3328V18.8511H36.666V15.5176Z" fill="#E5E5E5"/>
<path d="M33.334 15.5176H35.0007V18.8511H33.334V15.5176Z" fill="#E5E5E5"/>
<path d="M30 15.5176H31.6668V18.8511H30V15.5176Z" fill="#E5E5E5"/>
<path d="M40 31.3516H41.6668V33.0183H40V31.3516Z" fill="#E5E5E5"/>
<path d="M36.666 31.3516H38.3328V33.0183H36.666V31.3516Z" fill="#E5E5E5"/>
<path d="M33.334 31.3516H35.0007V33.0183H33.334V31.3516Z" fill="#E5E5E5"/>
<path d="M30 31.3516H31.6668V33.0183H30V31.3516Z" fill="#E5E5E5"/>
<path d="M2.49934 28.7888V33.8518C2.50219 36.1522 4.36632 38.0159 6.66627 38.0187H21.7323L36.5664 45.1375C37.4958 45.5827 38.564 45.6397 39.5354 45.2954C40.5067 44.9515 41.301 44.2349 41.7425 43.3039L44.3196 37.8869C46.1825 37.4344 47.4961 35.7688 47.5022 33.8518V31.1982L49.6231 26.7432C50.5439 24.8054 49.7281 22.488 47.7964 21.5545L47.5022 21.4137V15.5173C47.4993 13.217 45.6356 11.3533 43.3352 11.3504H26.5332L13.4367 5.06503C12.5077 4.61985 11.4391 4.56288 10.4682 4.90714C9.49685 5.251 8.70253 5.96759 8.26061 6.89864L6.11529 11.4062C4.05095 11.6784 2.50585 13.4351 2.49934 15.5173V19.0035L0.378439 23.4593C-0.542029 25.3971 0.273859 27.7146 2.20513 28.648L2.49934 28.7888ZM47.5022 23.332C48.3058 23.9798 48.5602 25.0939 48.1174 26.0262L47.5022 27.319V23.332ZM40.2353 42.5832C39.9842 43.1147 39.5321 43.524 38.9787 43.7206C38.4249 43.9175 37.8157 43.8854 37.2859 43.6315L25.5843 38.0187H42.4103L40.2353 42.5832ZM45.8354 33.8518C45.8354 35.2325 44.7159 36.352 43.3352 36.352H15.8335V26.7147C17.6871 28.4979 20.1604 29.4924 22.7325 29.4892V27.8224C20.5929 27.8248 18.5351 26.9992 16.9912 25.518H45.8354V33.8518ZM16.6103 23.3336L18.2502 19.2126C18.575 18.4142 19.3974 17.9353 20.2519 18.0476C21.1065 18.1595 21.7775 18.8342 21.8849 19.6896C21.9923 20.5445 21.5089 21.3645 20.7089 21.6843L16.6103 23.3336ZM43.3352 13.0172C44.7159 13.0172 45.8354 14.1366 45.8354 15.5173V23.8512H19.7937L21.3307 23.2343C22.8428 22.6349 23.7576 21.0882 23.5549 19.4743C23.3523 17.8604 22.0831 16.588 20.47 16.3808C18.8566 16.1737 17.3074 17.0844 16.7035 18.5949L15.8335 20.7793V13.0172H43.3352ZM9.76664 7.61605C10.0173 7.08461 10.4694 6.67524 11.0232 6.47829C11.5767 6.28174 12.1858 6.31389 12.716 6.56781L22.6825 11.3504H7.98878L9.76664 7.61605ZM4.16611 15.5173C4.16611 14.1366 5.28557 13.0172 6.66627 13.0172H14.1667V20.1978L13.5283 18.5949C12.9215 17.0921 11.376 16.1888 9.76868 16.3975C8.16132 16.6059 6.8974 17.873 6.69394 19.4812C6.49007 21.089 7.39792 22.6316 8.90233 23.2343L10.4381 23.8512H4.16611V15.5173ZM13.6227 23.3336L9.52411 21.6843C8.71636 21.3681 8.2252 20.5449 8.3306 19.6839C8.43599 18.8228 9.11149 18.1428 9.97173 18.0309C10.832 17.919 11.6584 18.4037 11.9807 19.2094L13.6227 23.3336ZM4.16611 25.518H13.241C11.6967 26.9992 9.63927 27.8248 7.49965 27.8224V29.4892C9.96319 29.4916 12.3392 28.578 14.1667 26.9263V36.352H6.66627C5.28557 36.352 4.16611 35.2325 4.16611 33.8518V25.518ZM1.88447 24.1763L2.49934 22.8827V26.8706C1.69566 26.2228 1.44133 25.1086 1.88447 24.1763Z" fill="#E5E5E5"/>
</g>
<defs>
<clipPath id="clip0">
<rect width="50" height="50" fill="white"/>
</clipPath>
</defs>
</svg>
