<svg width="23" height="20" viewBox="0 0 23 20" fill="none" xmlns="http://www.w3.org/2000/svg">
<path d="M8.62512 9.52374C5.98303 9.52374 3.8335 7.38769 3.8335 4.76196C3.8335 2.13623 5.98303 0 8.62512 0C11.2672 0 13.4167 2.13623 13.4167 4.76196C13.4167 7.38769 11.2672 9.52374 8.62512 9.52374ZM8.62512 1.42857C6.77564 1.42857 5.27097 2.92375 5.27097 4.76196C5.27097 6.59998 6.77564 8.09517 8.62512 8.09517C10.4746 8.09517 11.9793 6.59998 11.9793 4.76196C11.9793 2.92375 10.4746 1.42857 8.62512 1.42857Z" fill="#FF7A00"/>
<path d="M16.5309 20H0.718736C0.321992 20 0 19.68 0 19.2857V15.9523C0 13.4581 2.04215 11.4286 4.55194 11.4286H12.6977C15.2075 11.4286 17.2497 13.4581 17.2497 15.9523V19.2857C17.2497 19.68 16.9277 20 16.5309 20ZM1.43747 18.5714H15.8122V15.9523C15.8122 14.2458 14.4149 12.8572 12.6977 12.8572H4.55194C2.83476 12.8572 1.43747 14.2458 1.43747 15.9523V18.5714Z" fill="#FF7A00"/>
<path d="M22.2804 9.76195H14.1348C13.738 9.76195 13.416 9.44195 13.416 9.04766C13.416 8.65337 13.738 8.33337 14.1348 8.33337H22.2804C22.6771 8.33337 22.9991 8.65337 22.9991 9.04766C22.9991 9.44195 22.6771 9.76195 22.2804 9.76195Z" fill="#FF7A00"/>
<path d="M18.4471 13.5715C18.263 13.5715 18.0791 13.5019 17.9391 13.362C17.6583 13.0828 17.6583 12.6305 17.9391 12.3515L21.2645 9.04667L17.9391 5.74187C17.6583 5.46286 17.6583 5.0105 17.9391 4.73148C18.2198 4.45246 18.675 4.45246 18.9559 4.73148L22.7891 8.54095C23.0699 8.81996 23.0699 9.2725 22.7891 9.55151L18.9559 13.361C18.815 13.5019 18.631 13.5715 18.4471 13.5715Z" fill="#FF7A00"/>
</svg>
