<svg width="170" height="40" viewBox="0 0 170 40" fill="none" xmlns="http://www.w3.org/2000/svg">
<g clip-path="url(#clip0)">
<path d="M38.7485 32.0483H39.8002V36.9727H42.3888V32.0483H43.4404V36.9727H44.128V39.677H43.0764V37.7799H38.7485V32.0483Z" fill="#7C7C7C"/>
<path d="M47.8896 37.9011C47.0806 37.9011 46.4335 37.6185 45.9481 37.0938C45.5032 36.5691 45.2605 35.8829 45.2605 34.9949V34.7528C45.2605 33.9455 45.5032 33.2593 45.9885 32.6942C46.4739 32.1695 47.0402 31.887 47.7278 31.887C48.4963 31.887 49.0625 32.1291 49.467 32.6135C49.8715 33.0979 50.0333 33.7437 50.0333 34.5106V35.116H46.3526V35.1564C46.3526 35.7215 46.4739 36.2058 46.7166 36.5691C46.9593 36.9324 47.3638 37.0938 47.8896 37.0938C48.2536 37.0938 48.5772 37.0535 48.8199 36.9324C49.103 36.8113 49.3052 36.6902 49.5075 36.5287L49.9119 37.2149C49.7097 37.4167 49.4266 37.5782 49.103 37.6993C48.7794 37.8204 48.3749 37.9011 47.8896 37.9011ZM47.7278 32.7346C47.3638 32.7346 47.0402 32.8557 46.8379 33.1382C46.5953 33.4208 46.4335 33.784 46.393 34.228V34.2684H48.9817V34.1877C48.9817 33.784 48.8603 33.4208 48.6581 33.1382C48.4558 32.8557 48.1727 32.7346 47.7278 32.7346Z" fill="#7C7C7C"/>
<path d="M56.1814 37.7799H55.1298V35.3178H52.5411V37.7799H51.4895V32.0483H52.5411V34.5509H55.1298V32.0483H56.1814V37.7799Z" fill="#7C7C7C"/>
<path d="M59.1744 34.228H60.5901C61.2777 34.228 61.8035 34.3894 62.1675 34.7123C62.5316 35.0352 62.7338 35.4792 62.7338 36.0039C62.7338 36.5287 62.5316 36.9727 62.1675 37.2956C61.8035 37.6185 61.2372 37.8203 60.5901 37.8203H58.1228V32.0483H59.1744V34.228ZM59.1744 35.0352V36.9727H60.5901C60.9541 36.9727 61.2372 36.8919 61.4395 36.6901C61.6013 36.5287 61.7226 36.2865 61.7226 36.0039C61.7226 35.7214 61.6417 35.5196 61.4395 35.3178C61.2777 35.1159 60.9946 35.0352 60.5901 35.0352H59.1744ZM64.8371 37.7799H63.7854V32.0483H64.8371V37.7799Z" fill="#7C7C7C"/>
<path d="M70.0145 36.9718C70.2976 36.9718 70.4999 36.7296 70.6212 36.2856C70.7426 35.8416 70.8235 35.115 70.9043 34.1867L71.0257 32.0071H74.8682V36.9314H75.6367V39.6761H74.5851V37.779H70.4999V39.6761H69.4482V36.9314H70.0145V36.9718ZM71.956 34.1867C71.9155 34.8729 71.8751 35.438 71.7942 35.882C71.7133 36.3259 71.592 36.6892 71.4706 36.9718H73.8166V32.9758H72.0369L71.956 34.1867Z" fill="#7C7C7C"/>
<path d="M81.744 32.0474V37.8194H80.6924V32.8547H78.7509V34.4692C78.7509 35.5994 78.5891 36.447 78.306 36.9718C78.0228 37.4965 77.497 37.779 76.769 37.779H76.4858L76.5263 36.891H76.7285C77.0925 36.891 77.3757 36.6892 77.497 36.3259C77.6588 35.9627 77.6993 35.3572 77.6993 34.4692V32.0071H81.744V32.0474Z" fill="#7C7C7C"/>
<path d="M87.9731 32.0483V37.8203H86.9214V35.6003H85.5058L84.1306 37.8203H82.998L84.4542 35.4389C84.0901 35.3178 83.807 35.1159 83.6048 34.8334C83.4025 34.5509 83.3216 34.228 83.3216 33.8647C83.3216 33.34 83.5239 32.9363 83.9283 32.6134C84.3328 32.2905 84.8586 32.1291 85.5462 32.1291H87.9731V32.0483ZM84.3733 33.784C84.3733 34.0261 84.4542 34.2683 84.6159 34.4298C84.7777 34.5912 85.0609 34.7123 85.3844 34.7123H86.881V32.8152H85.5058C85.1418 32.8152 84.8182 32.896 84.6564 33.0978C84.4946 33.2996 84.3733 33.5418 84.3733 33.784Z" fill="#7C7C7C"/>
<path d="M97.4778 37.7799H96.4261V35.3178H93.8375V37.7799H92.7859V32.0483H93.8375V34.5509H96.4261V32.0483H97.4778V37.7799Z" fill="#7C7C7C"/>
<path d="M102.858 37.7797C102.817 37.6182 102.777 37.4568 102.777 37.3357C102.777 37.2146 102.736 37.0531 102.736 36.932C102.534 37.2146 102.291 37.4568 101.968 37.6182C101.644 37.82 101.321 37.9008 100.957 37.9008C100.35 37.9008 99.9049 37.7393 99.5813 37.4568C99.2577 37.1339 99.0959 36.7302 99.0959 36.2055C99.0959 35.6404 99.3386 35.2368 99.7836 34.9139C100.228 34.591 100.835 34.4295 101.604 34.4295H102.736V33.8644C102.736 33.5415 102.615 33.259 102.413 33.0572C102.21 32.8554 101.927 32.7746 101.523 32.7746C101.199 32.7746 100.916 32.8554 100.714 33.0168C100.512 33.1783 100.39 33.3801 100.39 33.6223H99.3791V33.5819C99.3386 33.1783 99.5409 32.7746 99.9858 32.4517C100.39 32.0885 100.957 31.927 101.604 31.927C102.251 31.927 102.777 32.0885 103.181 32.4114C103.586 32.7343 103.788 33.2186 103.788 33.8644V36.6495C103.788 36.8513 103.788 37.0531 103.828 37.255C103.869 37.4568 103.869 37.6182 103.95 37.82H102.858V37.7797ZM101.118 37.0128C101.482 37.0128 101.846 36.932 102.13 36.7302C102.413 36.5284 102.615 36.3266 102.736 36.0441V35.1157H101.563C101.159 35.1157 100.795 35.2368 100.552 35.4386C100.309 35.6404 100.188 35.8826 100.188 36.2055C100.188 36.4477 100.269 36.6495 100.431 36.811C100.593 36.9724 100.795 37.0128 101.118 37.0128Z" fill="#7C7C7C"/>
<path d="M110.502 35.1157C110.502 35.9633 110.3 36.6091 109.896 37.1339C109.491 37.6586 108.965 37.9008 108.237 37.9008C107.873 37.9008 107.55 37.8604 107.307 37.7393C107.024 37.6182 106.822 37.4568 106.619 37.2146V40.04H105.568V32.0481H106.377L106.538 32.7746C106.741 32.4921 106.943 32.2903 107.226 32.1288C107.509 31.9674 107.833 31.927 108.197 31.927C108.925 31.927 109.451 32.2095 109.855 32.7746C110.26 33.3397 110.462 34.1066 110.462 35.035V35.1157H110.502ZM109.451 35.035C109.451 34.3892 109.329 33.8644 109.046 33.4204C108.803 33.0168 108.399 32.7746 107.914 32.7746C107.63 32.7746 107.347 32.8554 107.145 32.9764C106.943 33.0975 106.741 33.2994 106.619 33.5415V36.3266C106.741 36.5688 106.943 36.7302 107.145 36.8917C107.347 37.0128 107.63 37.0935 107.914 37.0935C108.399 37.0935 108.803 36.8917 109.046 36.5284C109.289 36.1651 109.41 35.6808 109.41 35.1157V35.035H109.451Z" fill="#7C7C7C"/>
<path d="M111.837 34.8733C111.837 34.0257 112.08 33.3395 112.525 32.7744C112.969 32.2093 113.617 31.9672 114.426 31.9672C115.234 31.9672 115.841 32.2497 116.327 32.7744C116.771 33.3395 117.014 34.0257 117.014 34.8733V34.9944C117.014 35.842 116.771 36.5686 116.327 37.0933C115.882 37.6584 115.234 37.9006 114.426 37.9006C113.617 37.9006 113.01 37.618 112.525 37.0933C112.08 36.5282 111.837 35.842 111.837 34.9944V34.8733ZM112.848 34.954C112.848 35.5595 112.969 36.0842 113.253 36.4475C113.495 36.8511 113.9 37.0529 114.385 37.0529C114.87 37.0529 115.275 36.8511 115.518 36.4475C115.76 36.0439 115.922 35.5595 115.922 34.954V34.833C115.922 34.2275 115.801 33.7431 115.518 33.3395C115.275 32.9359 114.87 32.7341 114.385 32.7341C113.9 32.7341 113.495 32.9359 113.253 33.3395C113.01 33.7431 112.848 34.2275 112.848 34.833V34.954Z" fill="#7C7C7C"/>
<path d="M118.713 36.9718C118.996 36.9718 119.198 36.7296 119.319 36.2856C119.441 35.8416 119.522 35.115 119.603 34.1867L119.724 32.0071H123.566V36.9314H124.335V39.6761H123.283V37.779H119.198V39.6761H118.146V36.9314H118.713V36.9718ZM120.654 34.1867C120.614 34.8729 120.573 35.438 120.492 35.882C120.412 36.3259 120.29 36.6892 120.169 36.9718H122.515V32.9758H120.735L120.654 34.1867Z" fill="#7C7C7C"/>
<path d="M129.269 37.7797C129.229 37.6182 129.189 37.4568 129.189 37.3357C129.189 37.2146 129.148 37.0531 129.148 36.932C128.946 37.2146 128.703 37.4568 128.38 37.6182C128.056 37.82 127.732 37.9008 127.368 37.9008C126.762 37.9008 126.317 37.7393 125.993 37.4568C125.67 37.1339 125.508 36.7302 125.508 36.2055C125.508 35.6404 125.751 35.2368 126.195 34.9139C126.64 34.591 127.247 34.4295 128.016 34.4295H129.148V33.8644C129.148 33.5415 129.027 33.259 128.825 33.0572C128.622 32.8554 128.339 32.7746 127.935 32.7746C127.611 32.7746 127.328 32.8554 127.126 33.0168C126.923 33.1783 126.802 33.3801 126.802 33.6223H125.791V33.5819C125.751 33.1783 125.953 32.7746 126.398 32.4517C126.802 32.0885 127.368 31.927 128.016 31.927C128.663 31.927 129.189 32.0885 129.593 32.4114C129.997 32.7343 130.2 33.2186 130.2 33.8644V36.6495C130.2 36.8513 130.2 37.0531 130.24 37.255C130.281 37.4568 130.281 37.6182 130.361 37.82H129.269V37.7797ZM127.53 37.0128C127.894 37.0128 128.258 36.932 128.541 36.7302C128.824 36.5284 129.027 36.3266 129.148 36.0441V35.1157H127.975C127.571 35.1157 127.207 35.2368 126.964 35.4386C126.721 35.6404 126.6 35.8826 126.6 36.2055C126.6 36.4477 126.681 36.6495 126.843 36.811C127.004 36.9724 127.207 37.0128 127.53 37.0128Z" fill="#7C7C7C"/>
<path d="M6.39067 6.37738V8.113H11.932C13.6712 8.113 14.8442 9.28353 14.8442 10.7366C14.8442 12.1897 13.6712 13.3602 11.932 13.3602H6.39067V15.0958H14.561C16.5834 15.0958 17.7564 16.2664 17.7564 18.002C17.7564 19.7376 16.5834 20.9082 14.561 20.9082H3.19534C1.17297 20.9082 0 19.7376 0 18.002V3.47122C0 1.7356 1.17297 0.565063 3.19534 0.565063H14.2779C16.3003 0.565063 17.4732 1.7356 17.4732 3.47122C17.4732 5.20684 16.3003 6.37738 14.2779 6.37738H6.39067Z" fill="#FF7A00"/>
<path d="M33.3285 15.0959C35.3508 15.0959 36.5238 16.2664 36.5238 18.0021C36.5238 19.7377 35.3508 20.9082 33.3285 20.9082H23.1358C21.1134 20.9082 19.9404 19.7377 19.9404 18.0021V3.18875C19.9404 1.45313 21.1134 0.282593 23.1358 0.282593C25.1581 0.282593 26.3311 1.45313 26.3311 3.18875V15.0959H33.3285Z" fill="#FF7A00"/>
<path d="M51.4084 11.0595C51.4084 12.5126 50.2355 13.6831 48.4962 13.6831H39.7596C38.0204 13.6831 36.8474 12.5126 36.8474 11.0595C36.8474 9.60645 38.0204 8.43591 39.7596 8.43591H48.4962C50.2355 8.43591 51.4084 9.60645 51.4084 11.0595Z" fill="#FF7A00"/>
<path d="M62.6123 0.565063C68.7198 0.565063 71.0658 2.90613 71.0658 5.93338C71.0658 9.00099 67.8704 9.84862 67.8704 9.84862V10.1312C67.8704 10.1312 72.2387 11.0192 72.2387 14.9344C72.2387 18.2845 69.6097 20.9082 63.5021 20.9082H56.7879C54.7655 20.9082 53.5925 19.7376 53.5925 18.002V3.47122C53.633 1.7356 54.7655 0.565063 56.7879 0.565063H62.6123ZM59.9832 8.15336H62.6123C63.7852 8.15336 64.3515 7.58827 64.3515 6.86174C64.3515 6.1352 63.7852 5.57011 62.6123 5.57011H59.9832V8.15336ZM59.9832 15.9838H63.4617C64.756 15.9838 65.484 15.2573 65.484 14.3693C65.484 13.4813 64.756 12.7548 63.4617 12.7548H59.9832V15.9838Z" fill="#FF7A00"/>
<path d="M79.5193 18.3246C78.7912 20.0602 77.6182 21.2308 76.0408 21.2308C74.1398 21.2308 72.8455 19.9391 72.8455 18.3246C72.8455 17.4366 73.5735 15.701 73.5735 15.701L78.2249 3.51128C79.1148 1.33166 80.4091 0.0400391 83.3213 0.0400391C86.2335 0.0400391 87.5683 1.33166 88.4177 3.51128L93.0286 15.701C93.0286 15.701 93.7567 17.4366 93.7567 18.3246C93.7567 19.9391 92.4624 21.2308 90.5614 21.2308C88.9435 21.2308 87.8109 20.0602 87.0829 18.3246L86.3548 16.589H80.2473L79.5193 18.3246ZM85.0201 11.3418L83.4022 6.98252H83.1191L81.5012 11.3418H85.0201Z" fill="#FF7A00"/>
<path d="M102.817 6.70032V6.41778H97.2761C95.2537 6.41778 94.0807 5.24724 94.0807 3.51162C94.0807 1.776 95.2537 0.605469 97.2761 0.605469H108.642C110.664 0.605469 111.837 1.776 111.837 3.51162C111.837 5.24724 110.664 6.41778 110.664 6.41778L103.384 14.8537V15.1362H108.925C110.947 15.1362 112.12 16.3068 112.12 18.0424C112.12 19.778 110.947 20.9486 108.925 20.9486H96.9929C94.9706 20.9486 93.7976 19.778 93.7976 18.0424C93.7976 16.3068 94.9706 15.1362 94.9706 15.1362L102.817 6.70032Z" fill="#FF7A00"/>
<path d="M118.834 18.3246C118.106 20.0602 116.933 21.2308 115.356 21.2308C113.455 21.2308 112.16 19.9391 112.16 18.3246C112.16 17.4366 112.888 15.701 112.888 15.701L117.54 3.51128C118.43 1.33166 119.724 0.0400391 122.636 0.0400391C125.548 0.0400391 126.883 1.33166 127.733 3.51128L132.384 15.701C132.384 15.701 133.112 17.4366 133.112 18.3246C133.112 19.9391 131.818 21.2308 129.917 21.2308C128.299 21.2308 127.166 20.0602 126.438 18.3246L125.71 16.589H119.603L118.834 18.3246ZM124.335 11.3418L122.717 6.98252H122.434L120.816 11.3418H124.335Z" fill="#FF7A00"/>
<path d="M143.588 2.90616C144.316 1.17053 145.489 0 147.066 0C148.967 0 150.262 1.29162 150.262 2.90616C150.262 3.79415 149.534 5.52977 149.534 5.52977L144.882 17.7195C143.992 19.8991 142.698 21.1907 139.786 21.1907C136.874 21.1907 135.539 19.8991 134.69 17.7195L130.038 5.52977C130.038 5.52977 129.31 3.79415 129.31 2.90616C129.31 1.29162 130.604 0 132.505 0C134.123 0 135.256 1.17053 135.984 2.90616L136.712 4.64178H142.819L143.588 2.90616ZM138.047 9.889L139.665 14.2482H139.948L141.566 9.889H138.047Z" fill="#FF7A00"/>
<path d="M157.461 13.6428V18.2845C157.461 20.0202 156.289 21.1907 154.266 21.1907C152.244 21.1907 151.071 20.0202 151.071 18.2845V3.47122C151.071 1.7356 152.244 0.565063 154.266 0.565063H160.374C166.481 0.565063 169.11 3.18868 169.11 7.10391C169.11 10.7366 165.915 11.9071 165.915 11.9071V12.1897L168.827 15.6609C168.827 15.6609 170 17.114 170 18.2845C170 20.0202 168.827 21.1907 166.522 21.1907C165.066 21.1907 163.893 19.7376 163.893 19.7376L159.241 13.6428H157.461ZM160.374 8.71844C161.668 8.71844 162.396 7.9919 162.396 7.10391C162.396 6.21592 161.668 5.48938 160.374 5.48938H157.461V8.67808H160.374V8.71844Z" fill="#FF7A00"/>
<path d="M34.178 35.3583H0.404473C0.161789 35.3583 0 35.1968 0 34.9547C0 34.7125 0.161789 34.551 0.404473 34.551H34.178C34.4207 34.551 34.5824 34.7125 34.5824 34.9547C34.5824 35.1968 34.3802 35.3583 34.178 35.3583Z" fill="#7C7C7C"/>
<path d="M169.595 35.3583H135.822C135.579 35.3583 135.417 35.1968 135.417 34.9547C135.417 34.7125 135.579 34.551 135.822 34.551H169.595C169.838 34.551 170 34.7125 170 34.9547C170 35.1968 169.798 35.3583 169.595 35.3583Z" fill="#7C7C7C"/>
</g>
<defs>
<clipPath id="clip0">
<rect width="170" height="40" fill="white"/>
</clipPath>
</defs>
</svg>
