<?xml version="1.0" encoding="utf-8"?>
<!-- Generator: Adobe Illustrator 25.4.1, SVG Export Plug-In . SVG Version: 6.00 Build 0)  -->
<svg version="1.1" id="Слой_1" xmlns="http://www.w3.org/2000/svg" xmlns:xlink="http://www.w3.org/1999/xlink" x="0px" y="0px"
	 viewBox="0 0 1200 1200" style="enable-background:new 0 0 1200 1200;" xml:space="preserve">
<style type="text/css">
	.st0{fill-rule:evenodd;clip-rule:evenodd;fill:#F96F08;}
	.st1{fill:#F96F08;}
</style>
<path class="st0" d="M608,588.8c2.5-1.2,5.2-2.7,7.9-4.4c4.5-2.8,8.6-6.1,11.4-9.3c2.1-2.4,3.4-4.6,3.1-6.1c0-0.2-0.1-0.4-0.2-0.6
	c-0.2-0.3-0.3-0.4-0.5-0.5c-0.9-0.3-2.5,0.1-4.5,1.1c-2.7,1.4-5.6,3.7-8.4,6.7C613.2,579.3,610,583.9,608,588.8L608,588.8z
	 M549.1,539.2l48.9,0.9l-2.4,38.2c-2.2-2.5-4.5-4.8-6.9-6.8c-3.8-3.1-7.9-5.5-11.7-6.8c-4.6-1.6-9-1.7-12.5,0.1
	c-2.3,1.2-4.1,3-5.3,5.6c-0.7,1.4-1,2.9-1.1,4.4c-0.3,5.1,2.6,9.8,7.1,13.8c1.4,1.3,3,2.5,4.8,3.6l-29.8,0.2l2.9-48
	C543.3,541.3,545.9,539,549.1,539.2L549.1,539.2L549.1,539.2z M609.2,540.3l48.3,0.9c3.1,0,5.6,2.6,5.5,5.7c0,0.1,0,0.2,0,0.2l0,0
	l-2.8,44.6l-35.5,0.2c4.2-2.9,8-6.2,11-9.6c4.3-5,6.7-10.3,5.6-15.6c-0.3-1.5-0.9-3-1.8-4.4c-1.6-2.5-3.7-4.2-6.3-5.1
	c-4-1.4-8.6-0.7-13.2,1.7c-3.9,2-7.9,5.1-11.5,9c-0.3,0.4-0.7,0.7-1,1.1L609.2,540.3L609.2,540.3z M659.6,602.9l-3.3,52.6
	c-0.2,3.1-2.8,5.5-5.9,5.3l-0.1,0l0,0l-48.3-3.5l3.1-50.6c7.7,4.8,19,14.4,21.5,30.4c0.5,3.1,3.3,5.1,6.4,4.7
	c3.1-0.5,5.1-3.3,4.7-6.4c-2.3-14.9-10.6-25.4-18.6-32.2L659.6,602.9L659.6,602.9z M590.8,656.5l-48.6-3.5c-3.1-0.2-5.4-2.9-5.2-6
	l0-0.2l2.6-43.2l42.1-0.2c-6.1,5.9-11.7,14.2-12.4,25.3c-0.2,3.1,2.2,5.7,5.3,5.9c3.1,0.2,5.7-2.2,5.9-5.3
	c0.6-10.3,7.5-17.4,13.3-21.7L590.8,656.5L590.8,656.5z M584,587.2c2.1,1,4.2,1.8,6.3,2.5c-2.4-3.6-5.4-6.9-8.6-9.5
	c-2.8-2.3-5.7-4-8.3-4.9c-1.8-0.6-3.1-0.8-3.8-0.5c0,0-0.1,0.1-0.2,0.3c-0.1,0.1-0.1,0.3-0.1,0.4c-0.1,1.2,1.3,2.9,3.4,4.8
	C575.6,582.8,579.7,585.2,584,587.2z"/>
<g>
	<path class="st1" d="M296,598.1c0,0.6,0,1.3,0,1.9c0,0.9,0,1.8-0.1,2.6c-0.1,0.8-0.2,1.7-0.3,2.5c-0.6,4.3-1.9,8.2-3.9,12
		c-2,3.7-4.6,6.9-7.6,9.6c-3.1,2.7-6.6,4.8-10.5,6.4c-3.9,1.5-8.1,2.3-12.6,2.3c-4.8,0-9.4-0.9-13.7-2.8c-4.3-1.9-8-4.4-11.2-7.6
		c-3.2-3.2-5.7-6.9-7.5-11.2c-1.8-4.3-2.8-8.9-2.8-13.8c0-4.9,0.9-9.5,2.8-13.8c1.8-4.3,4.3-8,7.5-11.2c3.2-3.2,6.9-5.7,11.2-7.6
		c4.3-1.9,8.9-2.8,13.7-2.8c3.7,0,7.2,0.5,10.5,1.6c3.3,1.1,6.4,2.6,9.1,4.5c2.8,1.9,5.2,4.2,7.4,6.9c2.2,2.7,3.9,5.6,5.3,8.8h-11.9
		c-2.1-3.6-5-6.5-8.6-8.7c-3.6-2.2-7.5-3.3-11.9-3.3c-3.4,0-6.5,0.7-9.5,2c-3,1.4-5.5,3.2-7.7,5.5c-2.2,2.3-3.9,5-5.2,8.1
		c-1.3,3.1-1.9,6.4-1.9,10c0,3.5,0.6,6.9,1.9,10c1.3,3.1,3,5.8,5.2,8.1c2.2,2.3,4.8,4.2,7.7,5.5c3,1.4,6.1,2,9.5,2
		c2.9,0,5.7-0.5,8.3-1.5c2.6-1,5-2.5,7.1-4.3c2.1-1.8,3.9-4,5.3-6.5c1.5-2.5,2.5-5.2,3-8.1H260V596h25h10.8
		C295.9,596.7,295.9,597.4,296,598.1z"/>
	<path class="st1" d="M330.6,564.5H341v70.9h-10.4V564.5z"/>
	<path class="st1" d="M375.6,564.5H417v10h-31v9.8v8.9v5.5h26.4v9.7H386v10.1v17h-10.4V564.5z"/>
	<path class="st1" d="M451.6,564.5h45.3v10h-17.5v60.9h-10.3v-60.9h-17.5V564.5z"/>
	<path class="st1" d="M732,625.6c4.1,0,7.9-1,11.4-3c3.5-2,6.3-4.6,8.5-7.9l8.4,6.3c-3.2,4.4-7.3,7.9-12.1,10.5
		c-4.9,2.6-10.2,3.9-16.1,3.9c-4.8,0-9.4-0.9-13.6-2.8c-4.3-1.9-8-4.4-11.1-7.6c-3.2-3.2-5.7-6.9-7.5-11.2
		c-1.8-4.3-2.8-8.9-2.8-13.8c0-4.9,0.9-9.5,2.8-13.8c1.8-4.3,4.3-8,7.5-11.2c3.2-3.2,6.9-5.7,11.1-7.6c4.3-1.9,8.8-2.8,13.6-2.8
		c5.9,0,11.2,1.3,16.1,3.9c4.9,2.6,8.9,6.1,12.1,10.5l-8.4,6.3c-2.2-3.3-5-5.9-8.5-7.9c-3.5-2-7.2-3-11.4-3c-3.4,0-6.5,0.7-9.4,2
		c-2.9,1.4-5.5,3.2-7.7,5.5c-2.2,2.3-3.9,5-5.2,8.1c-1.3,3.1-1.9,6.4-1.9,10c0,3.5,0.6,6.9,1.9,10c1.3,3.1,3,5.8,5.2,8.1
		c2.2,2.3,4.8,4.2,7.7,5.5C725.5,625,728.7,625.6,732,625.6z"/>
	<path class="st1" d="M794.9,564.5h10.4v70.9h-10.4V564.5z"/>
	<path class="st1" d="M839.9,564.5h45.3v10h-17.5v60.9h-10.3v-60.9h-17.5V564.5z"/>
	<path class="st1" d="M974.2,564.4L974.2,564.4l-22,47.9v23.2v0.1h-10.4v-0.1v-23.2l-22-47.8h0.1l-0.1-0.1h11.5l15.7,37.9l15.7-37.9
		H974.2z"/>
</g>
</svg>
