<svg width="170" height="55" viewBox="0 0 170 55" fill="none" xmlns="http://www.w3.org/2000/svg">
<g clip-path="url(#clip0)">
<path d="M16.1436 23.9646L17.7006 23.8824C18.8069 23.8413 19.8313 24.088 20.7737 24.6634C21.839 25.3211 22.3717 26.1844 22.3717 27.2531C22.3717 29.2673 20.7737 30.9938 17.5368 32.4325C14.8735 33.6246 12.3741 34.2001 10.0386 34.2001C9.13714 34.2001 8.31767 34.0356 7.53916 33.7068C6.5558 33.2957 6.06411 32.6791 6.06411 31.8981C6.06411 31.1993 6.5558 29.7195 7.58014 27.4998C8.60448 25.0745 9.71077 23.0192 10.899 21.2927C12.2921 19.2374 13.3984 18.1687 14.2589 18.1687C14.7505 18.1687 14.9964 18.4153 14.9964 18.9497C14.9964 20.0184 14.095 21.9915 12.2511 24.9101C10.4073 27.8286 9.5059 29.514 9.5059 30.0072C9.5059 30.8294 9.95661 31.446 10.899 31.8159C11.5546 32.1036 12.3741 32.2681 13.3165 32.2681C14.6686 32.2681 15.8568 31.9392 16.9221 31.2815C18.1514 30.5416 18.766 29.514 18.766 28.2397C18.766 26.7187 17.7006 25.9377 15.611 25.9377C15.4471 25.9377 15.0783 25.9377 14.5457 25.9788C14.1359 25.9788 13.8081 25.9788 13.6033 25.9788L13.0296 25.9377L12.6609 25.3622C12.9477 24.8279 13.5623 24.1702 14.5457 23.4714C15.9388 22.4437 16.7583 21.8271 16.9631 21.6216C17.7416 20.8817 18.1514 20.1418 18.1514 19.4019C18.1514 18.1276 16.2256 17.511 12.3741 17.511C9.26006 17.511 6.22801 18.0453 3.31887 19.073C3.03206 19.1552 2.66329 19.4018 2.21258 19.7307C1.7209 20.0595 1.39311 20.2651 1.14726 20.3062L0.32779 20.0595L0 19.4841C1.39311 18.0453 3.76958 16.8122 7.12943 15.7434C10.2025 14.798 12.9067 14.3047 15.2013 14.3047C16.7173 14.3047 18.0694 14.5513 19.2167 15.0446C20.7327 15.7023 21.5112 16.73 21.5112 18.0453C21.5112 19.0319 20.8147 20.1829 19.4625 21.4161C18.8069 22.0737 17.7006 22.8959 16.1436 23.9646Z" fill="#FF7A00"/>
<path d="M29.0913 24.2939C29.1322 24.0062 29.4191 23.7184 29.9107 23.4307C30.4024 23.1018 30.8122 22.9785 31.099 22.9785C31.5907 22.9785 32.1233 23.3896 32.656 24.2528C33.1477 25.0338 33.4345 25.7326 33.4345 26.267C33.4345 28.4456 32.7379 30.4598 31.3448 32.2685C29.8288 34.2005 28.0259 35.187 25.8543 35.187C25.1168 35.187 24.5022 34.9815 24.0105 34.5293C23.4779 34.0772 23.191 33.4606 23.191 32.7618C23.191 31.0353 23.8056 29.3911 24.9939 27.7879C26.0592 26.3492 27.4113 25.1982 29.0913 24.2939ZM29.3371 26.3492C28.7635 27.1713 28.2308 28.1168 27.7801 29.1444C27.2474 30.3776 26.9606 31.3642 26.9606 32.1863C26.9606 32.844 27.2065 33.1728 27.6572 33.1728C28.2718 33.1728 28.9683 32.6796 29.7468 31.6519C30.3614 30.8709 30.8122 30.0488 31.1399 29.2678C30.1566 28.4867 29.542 27.5413 29.3371 26.3492Z" fill="#FF7A00"/>
<path d="M36.2617 28.0749C35.5652 28.0749 35.2374 27.9516 35.2374 27.6638C35.2374 27.4172 35.5652 27.0472 36.1798 26.5951C36.9173 26.0196 37.327 25.7319 37.368 25.6907C37.409 25.6496 37.8597 24.7864 38.6792 23.1011C39.4167 21.6623 39.9084 20.9224 40.1952 20.8402C40.482 20.758 40.9327 20.5936 41.5473 20.3881C41.7932 20.2647 41.998 20.2236 42.121 20.2236C42.5717 20.2236 42.8585 20.5936 42.9404 21.3335C42.4488 22.2378 41.7112 23.6354 40.8508 25.5674C41.2195 25.6085 41.6293 25.6085 41.998 25.6496C42.5717 25.7319 42.8585 25.8963 42.8585 26.1429C42.8585 26.4718 42.4488 27.1295 41.6293 28.0749C41.4244 28.1571 40.7688 28.1571 39.6216 28.116C38.966 29.3081 38.5972 30.2946 38.5972 31.0756C38.5972 31.8978 39.007 32.3088 39.7855 32.3088C40.0723 32.3088 40.482 32.2266 40.9737 32.0211C41.5064 31.8156 41.8341 31.7333 42.08 31.7333C42.4897 31.7333 42.6946 31.9389 42.6946 32.3499C42.6946 32.9665 41.998 33.5831 40.6049 34.1997C39.4167 34.693 38.4333 34.9396 37.6548 34.9396C36.8763 34.9396 36.2207 34.6108 35.6881 33.9531C35.1964 33.3365 34.9506 32.6377 34.9506 31.8567C34.9506 31.5278 35.1145 30.9112 35.4422 30.0069C35.77 29.3492 36.0159 28.7326 36.2617 28.0749Z" fill="#FF7A00"/>
<path d="M51.9137 30.7469C51.0123 31.7746 49.9879 32.5967 48.7997 33.2955C47.4476 34.0765 46.1774 34.4465 44.9482 34.4465C44.4974 34.4465 44.1697 34.241 43.8828 33.7888C43.637 33.4188 43.5551 33.0078 43.5551 32.5145C43.5551 30.8291 44.9072 28.8561 47.5705 26.5952C50.1928 24.3755 52.3644 23.2656 54.0853 23.2656C54.618 23.2656 55.1916 23.3889 55.7652 23.5945C56.5028 23.8822 56.8715 24.2522 56.8715 24.7043C56.8715 25.4442 56.5437 26.8419 55.9291 28.8561C55.2735 30.8703 54.9867 32.3501 54.9867 33.2544C54.9867 33.3777 55.0277 33.5421 55.1506 33.7888C55.2326 34.0354 55.3145 34.1998 55.3145 34.2821C55.3145 34.4876 55.1916 34.652 54.9458 34.8575C54.6999 35.022 54.495 35.1042 54.2902 35.1042C54.1263 35.1042 53.9214 35.1042 53.5936 35.0631C53.2658 35.022 53.02 35.022 52.8561 35.022C52.2005 35.022 51.8727 34.1999 51.8727 32.5967C51.7908 31.8568 51.8317 31.2813 51.9137 30.7469ZM47.9392 32.1034C48.7997 32.1034 50.0289 31.158 51.6679 29.226C53.2249 27.3762 54.0853 25.9786 54.2082 25.0743C54.1673 24.951 54.0443 24.9099 53.9214 24.9099C53.1019 24.9099 51.8317 25.8142 50.1928 27.664C48.5129 29.5138 47.6934 30.8703 47.6934 31.7335C47.6524 31.9801 47.7344 32.1034 47.9392 32.1034Z" fill="#FF7A00"/>
<path d="M84.283 23.9653L85.84 23.8831C86.9463 23.842 87.9706 24.0887 88.913 24.6641C89.9783 25.3218 90.511 26.1851 90.511 27.2538C90.511 29.268 88.913 30.9945 85.6761 32.4332C83.0128 33.6253 80.5134 34.2008 78.1779 34.2008C77.2765 34.2008 76.457 34.0363 75.6785 33.7075C74.6951 33.2964 74.2034 32.6798 74.2034 31.8988C74.2034 31.2 74.6951 29.7202 75.7195 27.5005C76.7848 25.1163 77.8911 23.1021 79.0793 21.3756C80.4724 19.3203 81.5787 18.2516 82.4392 18.2516C82.9308 18.2516 83.1767 18.4982 83.1767 19.0326C83.1767 20.1014 82.2753 22.0745 80.4315 24.993C78.5876 27.9115 77.6862 29.5969 77.6862 30.0901C77.6862 30.9123 78.1369 31.5289 79.0793 31.8988C79.7349 32.1866 80.5544 32.351 81.4968 32.351C82.8489 32.351 84.0371 32.0221 85.1025 31.3644C86.3317 30.6245 86.9463 29.5969 86.9463 28.3226C86.9463 26.8017 85.881 26.0206 83.7913 26.0206C83.6274 26.0206 83.2586 26.0206 82.726 26.0617C82.3162 26.0617 81.9885 26.0617 81.7836 26.0617L81.2099 26.0206L80.8412 25.4452C81.128 24.9108 81.7426 24.2531 82.726 23.5543C84.1191 22.5266 84.9386 21.91 85.1434 21.7045C85.9219 20.9646 86.3317 20.2247 86.3317 19.4848C86.3317 18.2105 84.4059 17.5939 80.5544 17.5939C77.4404 17.5939 74.4083 18.1283 71.4992 19.1559C71.2124 19.2381 70.8436 19.4848 70.3929 19.8136C69.9012 20.1425 69.5734 20.348 69.3276 20.3891L68.5081 20.1425L68.1803 19.6081C69.5734 18.1694 71.9499 16.9362 75.3097 15.8674C78.3828 14.922 81.087 14.4287 83.3816 14.4287C84.8976 14.4287 86.2497 14.6753 87.397 15.1686C88.913 15.8263 89.6915 16.854 89.6915 18.1694C89.6915 19.1559 88.995 20.3069 87.6428 21.5401C86.9053 22.0745 85.799 22.8966 84.283 23.9653Z" fill="#FF7A00"/>
<path d="M97.1897 24.2939C97.2306 24.0062 97.5175 23.7184 98.0091 23.4307C98.5008 23.1018 98.9106 22.9785 99.1974 22.9785C99.6891 22.9785 100.222 23.3896 100.754 24.2528C101.246 25.0338 101.533 25.7326 101.533 26.267C101.533 28.4456 100.836 30.4598 99.4432 32.2685C97.9272 34.2005 96.1243 35.187 93.9527 35.187C93.2152 35.187 92.6006 34.9815 92.1089 34.5293C91.5762 34.0772 91.2894 33.4606 91.2894 32.7618C91.2894 31.0353 91.904 29.3911 93.0923 27.7879C94.1576 26.3492 95.5097 25.1982 97.1897 24.2939ZM97.4765 26.3492C96.9028 27.1713 96.3702 28.1168 95.9195 29.1444C95.3868 30.3776 95.1 31.3642 95.1 32.1863C95.1 32.844 95.3458 33.1728 95.7966 33.1728C96.4112 33.1728 97.1077 32.6796 97.8862 31.6519C98.5008 30.8709 98.9515 30.0488 99.2793 29.2678C98.255 28.4867 97.6404 27.5413 97.4765 26.3492Z" fill="#FF7A00"/>
<path d="M110.875 29.1434C109.236 31.6919 107.761 33.3362 106.409 33.9939C106.409 33.9939 106.122 34.1583 105.63 34.4872C105.303 34.6927 105.016 34.816 104.852 34.816C104.524 34.816 104.155 34.6105 103.787 34.1994C103.418 33.7884 103.213 33.3773 103.213 33.0485C103.213 31.4453 103.705 29.4722 104.688 27.1292C105.876 24.3751 107.105 23.0186 108.417 23.0186C108.662 23.0186 108.949 23.2241 109.195 23.6351C109.441 24.0462 109.564 24.3751 109.564 24.6217C109.564 24.9505 109.154 25.9782 108.294 27.7047C107.433 29.4722 107.023 30.4999 107.023 30.8287C107.023 31.0754 107.146 31.1987 107.351 31.1987C107.761 31.1987 108.335 30.5821 109.072 29.3489C110.424 27.0881 111.121 25.896 111.162 25.8549C112.022 24.6217 112.842 23.964 113.538 23.964C114.153 23.964 114.481 24.5395 114.481 25.7316C114.481 26.3482 114.317 27.2936 114.03 28.5679C113.743 29.8422 113.579 30.7465 113.579 31.3631C113.579 31.5275 113.62 31.7742 113.702 32.103C113.784 32.4319 113.825 32.6785 113.825 32.8018C113.825 33.1718 113.538 33.6239 112.924 34.1172C112.309 34.6105 111.817 34.8571 111.449 34.8571C111.203 34.8571 110.957 34.6927 110.629 34.3638C110.342 34.035 110.178 33.7473 110.219 33.5417L110.875 29.1434Z" fill="#FF7A00"/>
<path d="M117.594 28.0749C116.898 28.0749 116.57 27.9516 116.57 27.6638C116.57 27.4172 116.898 27.0472 117.513 26.5951C118.25 26.0196 118.66 25.7319 118.701 25.6907C118.742 25.6496 119.192 24.7864 120.012 23.1011C120.749 21.6623 121.241 20.9224 121.528 20.8402C121.815 20.758 122.265 20.5936 122.88 20.3881C123.126 20.2647 123.331 20.2236 123.454 20.2236C123.904 20.2236 124.191 20.5936 124.273 21.3335C123.782 22.2378 123.044 23.6354 122.184 25.5674C122.552 25.6085 122.962 25.6085 123.331 25.6496C123.904 25.7319 124.191 25.8963 124.191 26.1429C124.191 26.4718 123.782 27.1295 122.962 28.0749C122.757 28.1571 122.102 28.1571 120.954 28.116C120.299 29.3081 119.93 30.2946 119.93 31.0756C119.93 31.8978 120.34 32.3088 121.118 32.3088C121.405 32.3088 121.815 32.2266 122.306 32.0211C122.839 31.8156 123.167 31.7333 123.413 31.7333C123.822 31.7333 124.027 31.9389 124.027 32.3499C124.027 32.9665 123.331 33.5831 121.938 34.1997C120.749 34.693 119.766 34.9396 118.988 34.9396C118.209 34.9396 117.554 34.6108 117.021 33.9531C116.529 33.3365 116.283 32.6377 116.283 31.8567C116.283 31.5278 116.447 30.9112 116.775 30.0069C117.103 29.3492 117.349 28.7326 117.594 28.0749Z" fill="#FF7A00"/>
<path d="M127.223 34.9401C126.609 34.9401 126.158 34.6934 125.83 34.2413C125.503 33.8302 125.38 33.2958 125.38 32.6792C125.38 32.3093 125.789 31.035 126.609 28.8564C127.428 26.6777 127.961 25.4446 128.207 25.1979C128.289 25.1157 128.739 24.8691 129.6 24.4991C130.46 24.0881 130.911 23.8825 130.993 23.8825C131.403 23.8825 131.608 24.1703 131.608 24.7046C131.608 24.9102 131.198 25.8556 130.378 27.541C129.559 29.2263 129.149 30.4595 129.149 31.2816C129.149 31.8982 129.395 32.186 129.887 32.186C130.051 32.186 130.378 32.0215 130.87 31.7338C131.321 31.446 131.608 31.2816 131.731 31.2816C132.099 31.2816 132.304 31.4872 132.304 31.8571C132.304 32.4326 131.608 33.1314 130.174 33.8713C128.862 34.5701 127.879 34.9401 127.223 34.9401ZM129.026 23.3481C128.617 23.3481 128.412 23.0193 128.412 22.4027C128.412 22.2383 128.658 21.7861 129.19 21.0051C129.354 20.7585 129.723 20.5118 130.337 20.3063C130.87 20.1008 131.321 20.0186 131.69 20.0186C132.222 20.0186 132.509 20.3063 132.509 20.8407C132.509 21.1284 132.345 21.5806 132.058 22.1972C131.772 22.9782 130.747 23.3481 129.026 23.3481Z" fill="#FF7A00"/>
<path d="M140.704 30.8698C137.959 33.5417 135.828 34.8982 134.23 34.8982C133.656 34.8982 133.247 34.6927 132.919 34.2816C132.591 33.8706 132.427 33.3773 132.427 32.8018C132.427 31.5686 133.124 30.171 134.558 28.5268C135.869 27.047 137.426 25.7727 139.27 24.6628C141.114 23.5529 142.63 23.0186 143.859 23.0186C144.146 23.0186 144.514 23.3885 145.006 24.1284C145.416 24.745 145.703 25.2383 145.867 25.6493C145.621 26.8003 145.006 28.3624 144.023 30.3354C142.712 32.9662 141.933 34.5283 141.769 34.9804C142.261 34.3638 142.793 33.7473 143.285 33.1307C143.9 32.3908 144.473 31.8564 144.965 31.4864C145.129 31.4864 145.293 31.5275 145.416 31.6097C145.539 31.6919 145.58 31.8564 145.58 32.0208C144.432 33.665 143.326 35.3093 142.179 36.9124C140.991 38.7622 140.089 40.5298 139.557 42.2973C139.393 42.8317 139.024 43.0783 138.409 43.0783C138 43.0783 137.713 43.0372 137.549 42.9139C137.385 42.7906 137.221 42.5851 137.016 42.2151C137.016 40.7353 137.467 38.8033 138.368 36.4192C138.614 35.7203 139.393 33.8295 140.704 30.8698ZM136.156 31.8153C136.156 32.0208 136.279 32.103 136.484 32.103C137.344 32.103 138.696 31.1165 140.458 29.1434C142.179 27.2114 143.08 25.8549 143.08 25.0328L142.916 24.9505C141.974 24.9505 140.622 25.8549 138.819 27.7047C137.057 29.5133 136.156 30.9109 136.156 31.8153Z" fill="#FF7A00"/>
<path d="M155.208 29.1434C153.57 31.6919 152.094 33.3362 150.742 33.9939C150.742 33.9939 150.456 34.1583 149.964 34.4872C149.636 34.6927 149.349 34.816 149.185 34.816C148.858 34.816 148.489 34.6105 148.12 34.1994C147.751 33.7884 147.546 33.3773 147.546 33.0485C147.546 31.4453 148.038 29.4722 149.021 27.1292C150.21 24.3751 151.439 23.0186 152.75 23.0186C152.996 23.0186 153.283 23.2241 153.529 23.6351C153.774 24.0462 153.897 24.3751 153.897 24.6217C153.897 24.9505 153.488 25.9782 152.627 27.7047C151.767 29.4722 151.357 30.4999 151.357 30.8287C151.357 31.0754 151.48 31.1987 151.685 31.1987C152.094 31.1987 152.668 30.5821 153.406 29.3489C154.758 27.0881 155.454 25.896 155.495 25.8549C156.356 24.6217 157.175 23.964 157.872 23.964C158.486 23.964 158.814 24.5395 158.814 25.7316C158.814 26.3482 158.65 27.2936 158.363 28.5679C158.077 29.8422 157.913 30.7465 157.913 31.3631C157.913 31.5275 157.954 31.7742 158.036 32.103C158.118 32.4319 158.159 32.6785 158.159 32.8018C158.159 33.1718 157.872 33.6239 157.257 34.1172C156.643 34.6105 156.151 34.8571 155.782 34.8571C155.536 34.8571 155.29 34.6927 154.963 34.3638C154.676 34.035 154.512 33.7473 154.553 33.5417L155.208 29.1434Z" fill="#FF7A00"/>
<path d="M164.878 32.2274C165.329 33.0084 166.025 33.3784 166.927 33.3784C167.337 33.3784 167.869 33.2139 168.484 32.8851C169.099 32.5562 169.426 32.3918 169.426 32.3918C169.795 32.3918 170 32.5562 170 32.8851C170 33.3784 169.467 33.8716 168.361 34.406C167.419 34.8582 166.599 35.0637 166.025 35.0637C165.698 35.0637 165.288 35.0226 164.796 34.9404C164.059 34.8582 163.321 34.7349 162.625 34.6527C161.928 34.4882 161.436 34.2416 161.15 33.8716C160.781 33.4195 160.617 32.6796 160.617 31.6519C160.617 30.0488 161.477 28.199 163.157 26.1437C164.919 24.0062 166.558 22.9785 168.115 22.9785C169.18 22.9785 169.713 23.7184 169.713 25.1571C169.713 25.4038 169.59 25.8971 169.344 26.6781C168.853 28.2401 168.361 29.35 167.869 30.0077C167.214 30.912 166.23 31.6108 164.878 32.2274ZM164.509 30.9531C165.329 30.4187 166.066 29.7199 166.681 28.8567C167.419 27.8701 167.746 26.9658 167.746 26.1026C167.746 25.6504 167.623 25.4449 167.337 25.4449C166.476 25.4449 165.739 26.1848 165.206 27.6235C164.755 28.7334 164.509 29.8432 164.509 30.9531Z" fill="#FF7A00"/>
<path d="M111.408 12.6694C111.408 12.2995 111.694 12.0117 112.063 12.0117C112.432 12.0117 112.678 12.2995 112.678 12.6694C112.678 13.0394 112.432 13.3271 112.022 13.3271C111.653 13.3271 111.408 13.0394 111.408 12.6694Z" fill="#999999"/>
<path d="M114.399 12.6694C114.399 12.2995 114.685 12.0117 115.054 12.0117C115.423 12.0117 115.669 12.2995 115.669 12.6694C115.669 13.0394 115.423 13.3271 115.013 13.3271C114.645 13.3271 114.399 13.0394 114.399 12.6694Z" fill="#999999"/>
<path d="M117.39 12.6694C117.39 12.2995 117.676 12.0117 118.045 12.0117C118.414 12.0117 118.66 12.2995 118.66 12.6694C118.66 13.0394 118.414 13.3271 118.004 13.3271C117.676 13.3271 117.39 13.0394 117.39 12.6694Z" fill="#999999"/>
<path d="M124.069 8.06543L124.765 10.6962C124.888 11.2717 125.052 11.8061 125.134 12.3405H125.175C125.298 11.8061 125.462 11.2717 125.626 10.6962L126.486 8.06543H127.265L128.084 10.6551C128.289 11.2717 128.412 11.8061 128.535 12.3405H128.576C128.658 11.8061 128.781 11.2717 128.985 10.6551L129.723 8.06543H130.665L128.985 13.2448H128.125L127.346 10.7784C127.183 10.2029 127.019 9.66857 126.896 9.09308H126.855C126.732 9.70967 126.568 10.2441 126.404 10.8195L125.585 13.2859H124.724L123.167 8.10654H124.069V8.06543Z" fill="#999999"/>
<path d="M133.37 6.58623C133.37 6.91508 133.165 7.16171 132.755 7.16171C132.427 7.16171 132.181 6.91508 132.181 6.58623C132.181 6.25738 132.427 6.01074 132.755 6.01074C133.124 6.01074 133.37 6.25738 133.37 6.58623ZM132.345 13.2454V8.06605H133.288V13.2454H132.345Z" fill="#999999"/>
<path d="M136.729 6.83203V8.06522H138.082V8.76402H136.729V11.5592C136.729 12.2169 136.893 12.5458 137.426 12.5458C137.672 12.5458 137.836 12.5047 137.959 12.4636L138 13.1624C137.836 13.2446 137.549 13.2857 137.18 13.2857C136.729 13.2857 136.402 13.1213 136.156 12.8746C135.91 12.5869 135.787 12.1347 135.787 11.5181V8.76402H134.968V8.06522H135.787V7.07867L136.729 6.83203Z" fill="#999999"/>
<path d="M139.925 5.64062H140.868V8.88801H140.909C141.073 8.64137 141.277 8.39474 141.564 8.23031C141.851 8.06589 142.179 7.98367 142.507 7.98367C143.203 7.98367 144.309 8.39474 144.309 10.2034V13.2864H143.408V10.3267C143.408 9.5046 143.08 8.8058 142.22 8.8058C141.605 8.8058 141.154 9.21686 140.95 9.75124C140.909 9.87456 140.868 10.039 140.868 10.2034V13.3275H139.925V5.64062Z" fill="#999999"/>
<path d="M149.718 5.64062H150.66V13.2453H149.718V5.64062Z" fill="#999999"/>
<path d="M157.708 10.6143C157.708 12.5463 156.356 13.3684 155.127 13.3684C153.734 13.3684 152.668 12.3407 152.668 10.6965C152.668 8.97004 153.815 7.94238 155.209 7.94238C156.684 7.94238 157.708 9.01114 157.708 10.6143ZM153.611 10.6554C153.611 11.8064 154.266 12.6285 155.168 12.6285C156.069 12.6285 156.725 11.7653 156.725 10.6143C156.725 9.75105 156.274 8.64119 155.168 8.64119C154.102 8.64119 153.611 9.66884 153.611 10.6554Z" fill="#999999"/>
<path d="M159.961 8.06543L160.986 10.9429C161.15 11.4361 161.314 11.8472 161.395 12.2994H161.436C161.559 11.8883 161.723 11.4361 161.887 10.9429L162.871 8.06543H163.854L161.846 13.2448H160.945L158.978 8.06543H159.961Z" fill="#999999"/>
<path d="M165.944 10.8198C165.985 12.0941 166.763 12.6285 167.706 12.6285C168.361 12.6285 168.812 12.5052 169.14 12.3818L169.304 13.0395C168.976 13.204 168.402 13.3684 167.583 13.3684C165.985 13.3684 165.042 12.2996 165.042 10.7376C165.042 9.17557 165.944 7.94238 167.46 7.94238C169.14 7.94238 169.59 9.4222 169.59 10.3676C169.59 10.5732 169.59 10.6965 169.549 10.8198H165.944ZM168.689 10.121C168.689 9.54552 168.443 8.60008 167.378 8.60008C166.435 8.60008 166.026 9.46331 165.944 10.121H168.689Z" fill="#999999"/>
<path d="M28.4356 50.2725C28.4356 52.2045 27.0835 53.0266 25.8543 53.0266C24.4612 53.0266 23.3959 51.9989 23.3959 50.3547C23.3959 48.6282 24.5431 47.6006 25.9362 47.6006C27.4523 47.6006 28.4356 48.7105 28.4356 50.2725ZM24.3792 50.3136C24.3792 51.4646 25.0348 52.2867 25.9362 52.2867C26.8377 52.2867 27.4933 51.4235 27.4933 50.2725C27.4933 49.4093 27.0425 48.2994 25.9362 48.2994C24.8709 48.2994 24.3792 49.327 24.3792 50.3136Z" fill="#999999"/>
<path d="M30.4433 49.4092C30.4433 48.7515 30.4023 48.2171 30.4023 47.7238H31.2218L31.2628 48.6281H31.3038C31.6725 48.0116 32.2871 47.6416 33.1476 47.6416C34.4178 47.6416 35.3602 48.7104 35.3602 50.2724C35.3602 52.1222 34.2129 53.0676 33.0247 53.0676C32.3281 53.0676 31.7545 52.7799 31.4267 52.2455H31.3857V55.0407H30.4433V49.4092ZM31.3447 50.7657C31.3447 50.889 31.3447 51.0123 31.3857 51.1356C31.5496 51.7933 32.1232 52.2455 32.7788 52.2455C33.7622 52.2455 34.3358 51.4234 34.3358 50.2313C34.3358 49.2036 33.8032 48.2993 32.8198 48.2993C32.1642 48.2993 31.5906 48.7515 31.3857 49.4503C31.3447 49.5736 31.3038 49.6969 31.3038 49.8202V50.7657H31.3447Z" fill="#999999"/>
<path d="M38.1465 47.7237V49.9023C38.1465 50.7245 38.1055 51.2588 38.0645 51.9577H38.1055C38.4333 51.3411 38.5972 50.9711 38.9659 50.3545L40.5639 47.6826H41.6702V52.862H40.7688V50.6834C40.7688 49.8201 40.8097 49.4091 40.8507 48.5458H40.8097C40.482 49.2035 40.2361 49.6557 39.9493 50.149C39.4576 50.93 38.884 51.9577 38.3513 52.862H37.286V47.6826H38.1465V47.7237Z" fill="#999999"/>
<path d="M47.1607 47.7246V48.4645H44.9071V52.904H43.9647V47.7246H47.1607Z" fill="#999999"/>
<path d="M49.701 47.7237V49.9023C49.701 50.7245 49.66 51.2588 49.619 51.9577H49.66C49.9878 51.3411 50.1517 50.9711 50.5205 50.3545L52.1184 47.6826H53.2247V52.862H52.3233V50.6834C52.3233 49.8201 52.3643 49.4091 52.4052 48.5458H52.3643C52.0365 49.2035 51.7906 49.6557 51.5038 50.149C51.0121 50.93 50.4385 51.9577 49.9059 52.862H48.7996V47.6826H49.701V47.7237Z" fill="#999999"/>
<path d="M56.4207 47.7246V49.821H58.8791V47.7246H59.8215V52.904H58.8791V50.5609H56.4207V52.904H55.4783V47.7246H56.4207Z" fill="#999999"/>
<path d="M65.7626 51.6701C65.7626 52.1223 65.8036 52.5744 65.8446 52.9033H64.9841L64.9022 52.2456H64.8612C64.5744 52.6566 64.0008 53.0266 63.3042 53.0266C62.2799 53.0266 61.7472 52.2867 61.7472 51.5468C61.7472 50.3136 62.8535 49.6148 64.8612 49.6148V49.4915C64.8612 49.0804 64.7383 48.2994 63.673 48.2994C63.1813 48.2994 62.6896 48.4227 62.3208 48.6693L62.116 48.0528C62.5257 47.8061 63.1813 47.6006 63.8369 47.6006C65.3939 47.6006 65.8036 48.6693 65.8036 49.697V51.6701H65.7626ZM64.8612 50.2314C63.8369 50.1903 62.6896 50.3958 62.6896 51.3823C62.6896 51.9989 63.0993 52.2867 63.55 52.2867C64.2466 52.2867 64.6563 51.8756 64.8202 51.4235C64.8612 51.3001 64.8612 51.2179 64.8612 51.1357V50.2314V50.2314Z" fill="#999999"/>
<path d="M72.0317 47.7246V52.904H71.0894V48.4645H69.3275V49.7799C69.3275 51.2186 69.2046 52.2052 68.508 52.6573C68.2622 52.8629 67.9754 52.9862 67.4837 52.9862L67.4017 52.2463C67.5656 52.2052 67.7705 52.123 67.8934 52.0407C68.3851 51.6708 68.4261 50.972 68.4261 49.821V47.7657H72.0317V47.7246Z" fill="#999999"/>
<path d="M75.2277 47.7246V49.4511C75.4325 49.41 75.8013 49.41 76.0881 49.41C77.2354 49.41 78.4646 49.7799 78.4646 51.1775C78.4646 51.7119 78.2597 52.0818 77.932 52.3696C77.3583 52.8629 76.4569 52.9862 75.6784 52.9862C75.1867 52.9862 74.695 52.9451 74.2853 52.904V47.7657H75.2277V47.7246ZM75.2277 52.2463C75.4325 52.2874 75.6374 52.2874 75.9242 52.2874C76.6208 52.2874 77.5222 52.0407 77.5222 51.1775C77.5222 50.2732 76.5798 50.0677 75.8833 50.0677C75.6374 50.0677 75.4325 50.1088 75.2277 50.1499V52.2463Z" fill="#999999"/>
<path d="M81.3327 47.7246V49.821H83.7911V47.7246H84.7335V52.904H83.7911V50.5609H81.3327V52.904H80.3903V47.7246H81.3327Z" fill="#999999"/>
<path d="M87.9704 47.7246V49.4922C88.1752 49.4511 88.462 49.41 88.7898 49.41C89.8961 49.41 91.0434 49.8621 91.0434 51.1364C91.0434 51.6708 90.8385 52.0407 90.5107 52.3285C89.9371 52.8218 89.1176 52.9451 88.4211 52.9451C87.9294 52.9451 87.4377 52.904 87.028 52.8629V47.7246H87.9704V47.7246ZM87.9704 52.2463C88.1752 52.2874 88.3801 52.2874 88.6259 52.2874C89.3635 52.2874 90.101 51.9996 90.101 51.1775C90.101 50.3554 89.3635 50.0677 88.6669 50.0677C88.4211 50.0677 88.1752 50.1088 87.9704 50.1499V52.2463ZM92.6004 47.7246V52.904H91.658V47.7246H92.6004Z" fill="#999999"/>
<path d="M95.4688 50.478C95.5098 51.7523 96.2883 52.2867 97.2307 52.2867C97.8862 52.2867 98.3369 52.1634 98.6647 52.04L98.8286 52.6977C98.5008 52.8622 97.9272 53.0266 97.1077 53.0266C95.5098 53.0266 94.5674 51.9578 94.5674 50.3958C94.5674 48.8338 95.4688 47.6006 96.9848 47.6006C98.6647 47.6006 99.1154 49.0804 99.1154 50.0258C99.1154 50.2314 99.1154 50.3547 99.0745 50.478H95.4688V50.478ZM98.214 49.8203C98.214 49.2448 97.9682 48.2994 96.9029 48.2994C95.9605 48.2994 95.5507 49.1626 95.4688 49.8203H98.214Z" fill="#999999"/>
<path d="M108.375 47.7246V52.904H107.433V48.4645H105.057V52.904H104.114V47.7246H108.375Z" fill="#999999"/>
<path d="M115.382 50.2725C115.382 52.2045 114.03 53.0266 112.801 53.0266C111.407 53.0266 110.342 51.9989 110.342 50.3547C110.342 48.6282 111.489 47.6006 112.883 47.6006C114.358 47.6006 115.382 48.7105 115.382 50.2725ZM111.285 50.3136C111.285 51.4646 111.94 52.2867 112.842 52.2867C113.743 52.2867 114.399 51.4235 114.399 50.2725C114.399 49.4093 113.948 48.2994 112.842 48.2994C111.776 48.2994 111.285 49.327 111.285 50.3136Z" fill="#999999"/>
<path d="M121.282 47.7246V52.2052H121.815L121.774 54.5482H121.036L120.995 52.904H117.431L117.39 54.5482H116.652L116.611 52.2463L117.062 52.2052C117.267 51.8763 117.472 51.5064 117.553 51.1364C117.758 50.4787 117.84 49.7799 117.84 49.0811V47.7246H121.282V47.7246ZM118.66 49.2866C118.66 49.9855 118.578 50.6431 118.414 51.2186C118.291 51.5886 118.168 51.8763 118.004 52.1641H120.381V48.4234H118.66V49.2866Z" fill="#999999"/>
<path d="M127.346 51.6701C127.346 52.1223 127.387 52.5744 127.428 52.9033H126.568L126.486 52.2456H126.445C126.158 52.6566 125.584 53.0266 124.888 53.0266C123.863 53.0266 123.331 52.2867 123.331 51.5468C123.331 50.3136 124.437 49.6148 126.445 49.6148V49.4915C126.445 49.0804 126.322 48.2994 125.257 48.2994C124.765 48.2994 124.273 48.4227 123.904 48.6693L123.7 48.0528C124.109 47.8061 124.765 47.6006 125.42 47.6006C126.977 47.6006 127.387 48.6693 127.387 49.697V51.6701H127.346ZM126.445 50.2314C125.42 50.1903 124.273 50.3958 124.273 51.3823C124.273 51.9989 124.683 52.2867 125.134 52.2867C125.83 52.2867 126.24 51.8756 126.404 51.4235C126.445 51.3001 126.445 51.2179 126.445 51.1357V50.2314V50.2314Z" fill="#999999"/>
<path d="M129.641 49.4092C129.641 48.7515 129.6 48.2171 129.6 47.7238H130.419L130.46 48.6281H130.501C130.87 48.0116 131.485 47.6416 132.345 47.6416C133.615 47.6416 134.558 48.7104 134.558 50.2724C134.558 52.1222 133.41 53.0676 132.222 53.0676C131.526 53.0676 130.952 52.7799 130.624 52.2455H130.583V55.0407H129.641V49.4092ZM130.583 50.7657C130.583 50.889 130.583 51.0123 130.624 51.1356C130.788 51.7933 131.362 52.2455 132.017 52.2455C133.001 52.2455 133.574 51.4234 133.574 50.2313C133.574 49.2036 133.042 48.2993 132.058 48.2993C131.403 48.2993 130.829 48.7515 130.624 49.4503C130.583 49.5736 130.542 49.6969 130.542 49.8202V50.7657H130.583Z" fill="#999999"/>
<path d="M137.426 47.7237V49.9846H137.631L139.557 47.7237H140.704L138.45 50.0668C139.27 50.149 139.802 50.7245 140.171 51.6288C140.294 51.9577 140.499 52.492 140.704 52.9031H139.72C139.597 52.6976 139.393 52.2865 139.229 51.8343C138.86 51.0122 138.409 50.6012 137.549 50.6012H137.385V52.862H136.443V47.6826H137.426V47.7237Z" fill="#999999"/>
<path d="M143.285 47.7237V49.9023C143.285 50.7245 143.244 51.2588 143.203 51.9577H143.244C143.572 51.3411 143.736 50.9711 144.105 50.3545L145.703 47.6826H146.809V52.862H145.907V50.6834C145.907 49.8201 145.948 49.4091 145.989 48.5458H145.948C145.621 49.2035 145.375 49.6557 145.088 50.149C144.596 50.93 144.023 51.9577 143.49 52.862H142.384V47.6826H143.285V47.7237Z" fill="#999999"/>
<path d="M169.426 49.9853H150.865C150.783 49.9853 150.66 49.9031 150.66 49.7798C150.66 49.6975 150.742 49.5742 150.865 49.5742H169.426C169.508 49.5742 169.631 49.6564 169.631 49.7798C169.59 49.9031 169.508 49.9853 169.426 49.9853Z" fill="#999999"/>
<path d="M18.8498 49.9853H0.288731C0.206784 49.9853 0.0838623 49.9031 0.0838623 49.7798C0.0838623 49.6975 0.16581 49.5742 0.288731 49.5742H18.8498C18.9318 49.5742 19.0547 49.6564 19.0547 49.7798C19.0547 49.9031 18.9728 49.9853 18.8498 49.9853Z" fill="#999999"/>
</g>
<defs>
<clipPath id="clip0">
<rect width="170" height="55" fill="white"/>
</clipPath>
</defs>
</svg>
