<svg width="50" height="50" viewBox="0 0 50 50" fill="none" xmlns="http://www.w3.org/2000/svg">
<path d="M11.1409 22.6025C9.44512 22.6025 8.06553 23.9821 8.06553 25.6779V26.2583H3.71748C2.15986 26.2583 0.892578 27.5255 0.892578 29.0832V36.665C0.892578 38.2226 2.15986 39.4898 3.71748 39.4898H8.06543V40.0703C8.06543 41.766 9.44502 43.1456 11.1408 43.1456C12.8366 43.1456 14.2162 41.766 14.2162 40.0703V25.6779C14.2163 23.9821 12.8366 22.6025 11.1409 22.6025ZM3.71748 37.9869C2.98848 37.9869 2.39541 37.3939 2.39541 36.6649V29.0831C2.39541 28.3541 2.98848 27.761 3.71748 27.761H8.06543V37.9869H3.71748ZM12.7134 40.0702C12.7134 40.9373 12.0079 41.6428 11.1408 41.6428C10.2737 41.6428 9.56826 40.9374 9.56826 40.0702V25.6779C9.56826 24.8108 10.2737 24.1053 11.1408 24.1053C12.0079 24.1053 12.7134 24.8107 12.7134 25.6779V40.0702Z" fill="#E5E5E5"/>
<path d="M46.2831 26.2583H41.9351V25.6779C41.9351 23.9821 40.5556 22.6025 38.8599 22.6025C37.1641 22.6025 35.7845 23.9821 35.7845 25.6779V40.0702C35.7845 41.7659 37.1641 43.1455 38.8599 43.1455C40.5556 43.1455 41.9351 41.7659 41.9351 40.0702V39.4897H43.9915V42.0442C43.9915 44.7947 41.7538 47.0325 39.0032 47.0325H30.3762C30.3762 47.0325 30.3762 47.0325 30.3762 47.0326C30.0686 46.175 29.2478 45.5597 28.2857 45.5597H26.685C25.4608 45.5597 24.4648 46.5557 24.4648 47.7798C24.4648 49.0039 25.4607 49.9999 26.6849 49.9999H28.2856C29.2447 49.9999 30.0635 49.3886 30.3733 48.5353H39.0031C42.5823 48.5353 45.4941 45.6234 45.4941 42.0442V39.4897H46.283C47.8407 39.4897 49.1079 38.2226 49.1079 36.6649V29.0831C49.1079 27.5255 47.8407 26.2583 46.2831 26.2583ZM40.4323 40.0702C40.4323 40.9373 39.7269 41.6428 38.8598 41.6428C37.9927 41.6428 37.2871 40.9374 37.2871 40.0702V25.6779C37.2871 24.8108 37.9926 24.1053 38.8598 24.1053C39.7268 24.1053 40.4323 24.8107 40.4323 25.6779V40.0702ZM28.2856 48.4972H26.6849C26.2893 48.4972 25.9675 48.1754 25.9675 47.7798C25.9675 47.3842 26.2893 47.0624 26.6849 47.0624H28.2856C28.6812 47.0624 29.0031 47.3842 29.0031 47.7798C29.0031 48.1754 28.6812 48.4972 28.2856 48.4972ZM47.6052 36.6649C47.6052 37.3939 47.0121 37.9869 46.2831 37.9869H41.9351V27.761H46.2831C47.0121 27.761 47.6052 28.3541 47.6052 29.0831V36.6649Z" fill="#E5E5E5"/>
<path d="M24.999 2.86719C14.4206 2.86719 5.81445 11.4733 5.81445 22.0518V23.0021C5.81445 23.4171 6.15088 23.7534 6.56582 23.7534C6.98076 23.7534 7.31719 23.4171 7.31719 23.0021V22.0518C7.31719 12.302 15.2492 4.37002 24.999 4.37002C34.7488 4.37002 42.6808 12.302 42.6808 22.0518V23.0021C42.6809 23.4171 43.0173 23.7534 43.4322 23.7534C43.8473 23.7534 44.1836 23.4171 44.1836 23.0021V22.0518C44.1836 11.4733 35.5774 2.86719 24.999 2.86719Z" fill="#E5E5E5"/>
<path d="M40.5927 6.45879C36.4275 2.29375 30.8897 0 24.9994 0C19.1091 0 13.5713 2.29375 9.40615 6.45879C5.24111 10.6239 2.94727 16.1617 2.94727 22.0521V23.0023C2.94727 23.4174 3.28369 23.7537 3.69863 23.7537C4.11357 23.7537 4.45 23.4174 4.45 23.0023V22.0521C4.45 16.5632 6.5875 11.4027 10.4688 7.52148C14.3501 3.64023 19.5105 1.50273 24.9994 1.50273C30.4884 1.50273 35.6487 3.64023 39.53 7.52148C43.4113 11.4027 45.5488 16.5631 45.5488 22.0521V23.0023C45.5488 23.4174 45.8852 23.7537 46.3002 23.7537C46.7152 23.7537 47.0516 23.4174 47.0516 23.0023V22.0521C47.0516 16.1617 44.7578 10.6239 40.5927 6.45879Z" fill="#E5E5E5"/>
</svg>
