<svg width="50" height="50" viewBox="0 0 50 50" fill="none" xmlns="http://www.w3.org/2000/svg">
<g clip-path="url(#clip0)">
<path d="M47.9741 26.9272C47.3918 25.7024 47.3918 24.2976 47.9741 23.0727L48.4694 22.0308C49.9374 18.9429 48.7352 15.2432 45.7326 13.6078L44.7194 13.0559C43.5286 12.4073 42.7028 11.2708 42.4539 9.93766L42.2422 8.80355C41.6148 5.44254 38.4663 3.15596 35.0772 3.59777L33.933 3.74689C32.588 3.92199 31.2521 3.488 30.2673 2.55585L29.4294 1.76276C26.9462 -0.587587 23.0561 -0.587587 20.573 1.76276L19.735 2.55585C18.7502 3.488 17.4145 3.92209 16.0692 3.74689L14.9252 3.59777C11.5342 3.15537 8.38761 5.44254 7.76015 8.80355L7.54843 9.93766C7.29959 11.2708 6.47379 12.4073 5.28285 13.056L4.26974 13.6078C1.26713 15.2431 0.0648515 18.9429 1.53295 22.0308L2.02828 23.0727C2.61052 24.2976 2.61052 25.7024 2.02828 26.9272L1.53295 27.9691C0.0649492 31.057 1.26713 34.7568 4.26974 36.3922L5.28294 36.9441C6.47379 37.5926 7.29959 38.7292 7.54843 40.0623L7.76015 41.1964C8.33555 44.2784 11.0292 46.4571 14.0867 46.4568C14.3634 46.4568 14.6438 46.4388 14.9252 46.4022L16.0693 46.2531C17.4139 46.0778 18.7502 46.5119 19.735 47.4441L20.573 48.2372C21.8147 49.4125 23.4076 50.0001 25.0012 49.9999C26.5943 49.9998 28.188 49.4122 29.4294 48.2372L30.2673 47.4441C31.2522 46.5119 32.5876 46.0775 33.9331 46.2531L35.0772 46.4022C38.4675 46.8442 41.6147 44.5574 42.2422 41.1964L42.4539 40.0623C42.7028 38.7292 43.5286 37.5926 44.7195 36.944L45.7326 36.3922C48.7352 34.7569 49.9375 31.057 48.4694 27.9691L47.9741 26.9272ZM46.2102 27.7658L46.7055 28.8077C47.7284 30.9593 46.8907 33.5374 44.7984 34.6769L43.7854 35.2287C42.0762 36.1595 40.8911 37.7907 40.534 39.7039L40.3222 40.8379C39.885 43.1798 37.6927 44.773 35.3295 44.4653L34.1856 44.3162C32.2559 44.0645 30.3381 44.6876 28.9247 46.0255L28.0868 46.8186C26.3566 48.4564 23.6458 48.4564 21.9157 46.8186L21.0777 46.0255C19.8704 44.8826 18.2951 44.2615 16.6585 44.2615C16.3793 44.2615 16.0982 44.2796 15.817 44.3163L14.6729 44.4654C12.311 44.7734 10.1175 43.18 9.68021 40.838L9.46849 39.704C9.11135 37.7908 7.92627 36.1597 6.21714 35.2289L5.20403 34.677C3.1117 33.5375 2.27408 30.9595 3.29696 28.8078L3.79228 27.7659C4.62795 26.0082 4.62795 23.992 3.79228 22.2342L3.29696 21.1923C2.27408 19.0407 3.1118 16.4626 5.20403 15.3231L6.21705 14.7714C7.92627 13.8406 9.11135 12.2094 9.46849 10.2962L9.68021 9.16215C10.1175 6.8202 12.3088 5.22661 14.6729 5.53472L15.8169 5.68385C17.7463 5.93512 19.6642 5.31245 21.0777 3.97453L21.9157 3.18145C23.6459 1.54362 26.3567 1.54362 28.0868 3.18145L28.9247 3.97453C30.3381 5.31245 32.2561 5.93552 34.1855 5.68385L35.3295 5.53472C37.6917 5.22749 39.8849 6.82011 40.3222 9.16215L40.534 10.2962C40.8911 12.2094 42.0762 13.8405 43.7853 14.7713L44.7984 15.3231C46.8908 16.4626 47.7284 19.0406 46.7055 21.1923L46.2102 22.2342C45.3745 23.9919 45.3745 26.0082 46.2102 27.7658Z" fill="#E5E5E5"/>
<path d="M41.4031 28.2134C40.8802 28.0791 40.3485 28.3941 40.2144 28.9165C38.4331 35.8584 32.1765 40.7066 24.9998 40.7066C16.339 40.7066 9.29301 33.6606 9.29301 24.9998C9.29301 16.3391 16.339 9.29301 24.9998 9.29301C32.0639 9.29301 38.295 14.0471 40.1527 20.8541C40.2947 21.3745 40.8318 21.6813 41.352 21.5391C41.8723 21.3971 42.179 20.8602 42.037 20.3399C39.9479 12.6857 32.942 7.33984 24.9998 7.33984C15.2621 7.33984 7.33984 15.2621 7.33984 24.9998C7.33984 34.7376 15.2621 42.6598 24.9998 42.6598C33.0687 42.6598 40.1031 37.208 42.1064 29.4021C42.2404 28.8796 41.9255 28.3474 41.4031 28.2134Z" fill="#E5E5E5"/>
<path d="M15.479 19.9673C13.8655 19.9673 12.5527 21.28 12.5527 22.8935C12.5527 24.507 13.8654 25.8197 15.479 25.8197C15.6372 25.8197 15.7925 25.8067 15.9439 25.7824L18.6897 33.1081C18.8327 33.4893 19.197 33.7419 19.6042 33.7419H30.401C30.8081 33.7419 31.1725 33.4893 31.3155 33.1081L34.0626 25.7786C34.2208 25.8052 34.383 25.8197 34.5487 25.8197C36.1622 25.8197 37.4749 24.507 37.4749 22.8935C37.4749 21.28 36.1623 19.9673 34.5487 19.9673C32.9351 19.9673 31.6223 21.28 31.6223 22.8935C31.6223 23.3598 31.7326 23.8007 31.9275 24.1925L28.1323 25.9904L26.3712 22.1727C27.2968 21.6807 27.9288 20.7066 27.9288 19.5874C27.9288 17.9739 26.6162 16.6611 25.0025 16.6611C23.3889 16.6611 22.0763 17.9739 22.0763 19.5874C22.0763 20.7066 22.7082 21.6808 23.6339 22.1727L21.8728 25.9904L18.0957 24.201C18.2933 23.8072 18.4052 23.3633 18.4052 22.8935C18.4053 21.28 17.0926 19.9673 15.479 19.9673ZM14.5059 22.8935C14.5059 22.357 14.9424 21.9204 15.479 21.9204C16.0156 21.9204 16.4521 22.357 16.4521 22.8935C16.4521 23.2204 16.2896 23.5094 16.0417 23.686C16.0085 23.7047 15.9762 23.7247 15.9451 23.7474C15.8066 23.8233 15.6478 23.8666 15.479 23.8666C14.9424 23.8666 14.5059 23.43 14.5059 22.8935ZM34.5488 21.9204C35.0853 21.9204 35.5218 22.357 35.5218 22.8935C35.5218 23.43 35.0853 23.8666 34.5488 23.8666C34.0121 23.8666 33.5756 23.43 33.5756 22.8935C33.5756 22.357 34.0121 21.9204 34.5488 21.9204ZM25.0026 18.6142C25.5392 18.6142 25.9757 19.0507 25.9757 19.5873C25.9757 20.1238 25.5392 20.5603 25.0026 20.5603C24.4661 20.5603 24.0296 20.1238 24.0296 19.5873C24.0296 19.0507 24.4661 18.6142 25.0026 18.6142ZM21.9282 28.1779C22.4126 28.4073 23.0089 28.1905 23.2331 27.7043L25.0025 23.8684L26.772 27.7043C26.9961 28.1904 27.5925 28.4074 28.0768 28.1779L31.7252 26.4495L29.724 31.7886H20.2811L18.2799 26.4494L21.9282 28.1779Z" fill="#E5E5E5"/>
<path d="M41.4938 24.043C41.0682 24.1229 40.7422 24.4992 40.7115 24.9284C40.6809 25.3545 40.9362 25.755 41.3334 25.9101C42.1541 26.2303 42.9547 25.329 42.5504 24.5496C42.3538 24.1708 41.9128 23.958 41.4938 24.043Z" fill="#E5E5E5"/>
</g>
<defs>
<clipPath id="clip0">
<rect width="50" height="50" fill="white"/>
</clipPath>
</defs>
</svg>
