<svg width="40" height="40" viewBox="0 0 40 40" fill="none" xmlns="http://www.w3.org/2000/svg">
<path d="M30.561 23.6243H16.1219L24.0995 19.1784C24.9335 18.7118 25.2347 17.6536 24.7706 16.8186L23.5815 14.6867C23.114 13.8516 22.0548 13.5521 21.2214 14.0181L17.9029 15.8673C18.2931 15.0842 18.536 14.3163 18.6259 13.5705C18.7756 12.3287 18.4938 11.2079 17.811 10.3292C16.7012 8.90119 14.7635 8.42651 13.0985 9.17471C12.8034 9.30736 12.6717 9.65416 12.8043 9.9494C12.937 10.2445 13.2838 10.3763 13.579 10.2436C14.7491 9.71768 16.1088 10.0486 16.8856 11.0483C18.0011 12.4838 17.5732 14.7291 15.7455 17.0695L15.0378 17.4638L14.5257 16.5463C14.3942 16.31 14.2235 16.1038 14.0227 15.9336C14.1472 15.1885 14.4942 14.2241 14.8777 13.5942C15.046 13.3178 14.9585 12.9573 14.682 12.789C14.4056 12.6206 14.0452 12.7084 13.8769 12.9847C13.4641 13.6626 13.1063 14.602 12.9264 15.4331C12.4356 15.3547 11.9374 15.4411 11.4989 15.6856L11.2963 15.7985C11.216 14.1078 11.4781 12.6928 12.0687 11.6724C12.2308 11.3923 12.1352 11.0338 11.8551 10.8717C11.5752 10.7098 11.2166 10.8053 11.0545 11.0853C10.2707 12.4396 9.97205 14.2364 10.1638 16.4299L9.45626 16.8243C6.46658 14.6019 3.54119 14.1475 1.57845 15.6199C0.157513 16.6858 -0.377799 18.572 0.276732 20.2067C0.944545 21.8746 2.61439 22.8902 4.91486 23.1046L1.51744 24.9978C0.683998 25.4625 0.383451 26.5199 0.847826 27.3554L2.03665 29.4891C2.35345 30.0567 2.94548 30.3771 3.55494 30.3771C3.8404 30.3771 4.1297 30.3068 4.39634 30.1588C4.39658 30.1587 4.39681 30.1585 4.39704 30.1584L8.22572 28.0247V37.5685C8.22572 38.7158 9.15939 39.6492 10.307 39.6492H29.9019C31.0495 39.6492 31.9833 38.7158 31.9833 37.5685V25.0463C31.9832 24.2622 31.3452 23.6243 30.561 23.6243ZM11.0341 25.1181L9.29767 22.0041L14.5852 19.0578L16.3214 22.1715L13.6775 23.6449C13.5831 23.6703 13.4983 23.7184 13.4292 23.7834L11.0341 25.1181ZM21.7928 15.0414C21.8792 14.9931 21.9731 14.9701 22.0658 14.9701C22.2633 14.9701 22.4554 15.0742 22.5586 15.2584L23.7467 17.3886C23.8974 17.6596 23.7989 18.0037 23.5283 18.1551L17.3451 21.601L15.6089 18.4872L21.7928 15.0414ZM12.0696 16.7093C12.2268 16.6217 12.4006 16.5771 12.5771 16.5771C12.6745 16.5771 12.7727 16.5907 12.8695 16.6181C13.1414 16.6953 13.366 16.8722 13.5021 17.1171L14.014 18.034L8.72689 20.9802L8.21423 20.0604C8.11329 19.8795 8.0697 19.6767 8.0854 19.4733C8.08595 19.4677 8.08665 19.4621 8.08704 19.4565C8.09314 19.3917 8.1047 19.3268 8.12298 19.2627C8.20009 18.9916 8.37712 18.7675 8.62189 18.6314L12.0696 16.7093ZM1.36462 19.7713C0.906732 18.6276 1.28376 17.3061 2.28165 16.5576C3.71876 15.4796 5.93876 15.8226 8.32415 17.4556L8.05197 17.6074C7.62103 17.847 7.28962 18.2154 7.09634 18.6618C6.32259 18.4181 5.62775 18.2844 4.63236 18.1754C4.3104 18.1404 4.02134 18.3724 3.98611 18.6941C3.95087 19.0158 4.18314 19.3051 4.50478 19.3403C5.5997 19.4602 6.24384 19.6093 6.92845 19.8388C6.96423 20.1138 7.05181 20.3821 7.19072 20.6311L7.70337 21.5509L7.06368 21.9074C4.15587 22.2253 2.02923 21.4313 1.36462 19.7713ZM3.82665 29.1349C3.55923 29.2828 3.20822 29.1838 3.06009 28.9185L1.87181 26.7858C1.72119 26.5149 1.81829 26.172 2.08806 26.0216L7.50767 23.0016C7.52486 22.9931 7.5415 22.9838 7.55759 22.9738L8.27408 22.5745L10.0105 25.6886L8.53611 26.5103C8.53298 26.512 8.52993 26.5138 8.52681 26.5155L3.82665 29.1349ZM9.39759 37.5685V27.3717L14.0191 24.7962H16.7209V29.9853C16.7209 30.3088 16.9832 30.5712 17.3068 30.5712C17.6304 30.5712 17.8927 30.3088 17.8927 29.9853V24.7962H22.3161V38.4774H17.8927V32.7613C17.8927 32.4378 17.6304 32.1754 17.3068 32.1754C16.9832 32.1754 16.7209 32.4378 16.7209 32.7613V38.4774H10.307C9.80556 38.4774 9.39759 38.0697 9.39759 37.5685ZM30.8113 37.5685C30.8113 38.0697 30.4034 38.4774 29.9019 38.4774H23.4881V24.7962H30.561C30.6967 24.7962 30.8113 24.9107 30.8113 25.0463V37.5685Z" fill="white"/>
<path d="M28.4125 10.4968C28.4203 10.5689 29.1639 17.7333 26.6553 20.4527C26.4358 20.6906 26.4508 21.0613 26.6886 21.2807C26.8013 21.3846 26.9437 21.4359 27.0858 21.4359C27.2437 21.4359 27.4011 21.3725 27.5167 21.2472C30.3824 18.1407 29.6117 10.6864 29.5775 10.3705C29.5427 10.0488 29.2538 9.81659 28.9319 9.85104C28.6102 9.88604 28.3776 10.1751 28.4125 10.4968Z" fill="white"/>
<path d="M33.7722 9.62558C32.7809 11.1434 32.466 12.498 32.453 12.555C32.3815 12.8701 32.5787 13.1831 32.8937 13.2553C32.9377 13.2653 32.9815 13.2701 33.0248 13.2701C33.2916 13.2701 33.5329 13.0864 33.5955 12.8154C33.5983 12.8032 33.8883 11.5775 34.7761 10.2315C35.9443 8.4605 37.5501 7.32058 39.5488 6.84347C39.8636 6.76839 40.0578 6.4523 39.9827 6.13753C39.9076 5.82277 39.5916 5.62855 39.2768 5.70363C36.9957 6.24808 35.0922 7.60425 33.7722 9.62558Z" fill="white"/>
<path d="M21.7527 6.4075C21.7547 6.42172 21.7574 6.45578 21.7521 6.52453L21.6142 8.22937C21.5946 8.41016 21.5558 8.81484 21.8861 9.06477C22.2221 9.31898 22.6167 9.15961 22.7911 9.08922L24.3571 8.43656C24.3881 8.42656 24.4646 8.42625 24.4928 8.435L26.0712 9.09156C26.1705 9.13172 26.3485 9.20359 26.5466 9.20359C26.6841 9.20359 26.8313 9.16898 26.9687 9.065C27.2981 8.8157 27.2595 8.41094 27.2399 8.22969L27.1045 6.52727C27.0992 6.45867 27.1011 6.42383 27.1029 6.40836L28.2405 5.0375C28.3719 4.88828 28.6313 4.58617 28.5092 4.19445C28.3852 3.79703 27.9814 3.6968 27.8089 3.65398L26.0794 3.225L25.1698 1.70664C25.0861 1.56547 24.8639 1.19062 24.4299 1.18945C24.4292 1.18945 24.4285 1.18945 24.4278 1.18945C23.9949 1.18945 23.7706 1.56305 23.6861 1.70391C23.686 1.70406 23.686 1.70422 23.6859 1.70437L22.7833 3.21117L22.7751 3.22508L21.0443 3.6543C20.8723 3.69727 20.4693 3.79797 20.3457 4.19531C20.2239 4.58695 20.4921 4.89945 20.6139 5.03781L21.7527 6.4075ZM23.113 4.34859C23.5037 4.25203 23.6446 4.05852 23.7657 3.8518L24.427 2.74727L25.0943 3.86117C25.2149 4.06359 25.355 4.2532 25.7405 4.34844L27.0251 4.66703L26.1978 5.66391C25.9259 5.98531 25.9149 6.34164 25.936 6.61828L26.0306 7.80547L24.9459 7.35422C24.6378 7.22406 24.2218 7.22367 23.9107 7.35312L22.8242 7.80594L22.9204 6.61633C22.9395 6.36578 22.9335 5.99484 22.6617 5.66789L21.8294 4.66695L23.113 4.34859Z" fill="white"/>
<path d="M39.6982 18.5084C39.8217 18.3695 40.0904 18.0579 39.9691 17.6661C39.8458 17.2674 39.4406 17.1668 39.2675 17.1238L37.5404 16.6954L36.6289 15.1736C36.5444 15.0329 36.3201 14.6592 35.8872 14.6592C35.8865 14.6592 35.8858 14.6592 35.8852 14.6592C35.4527 14.6604 35.2305 15.0326 35.1461 15.1749L34.2418 16.6808L34.2332 16.6954L32.506 17.1238C32.333 17.1667 31.9278 17.2673 31.8045 17.6661C31.6833 18.0579 31.9519 18.3694 32.0754 18.5082L33.2121 19.8781C33.2139 19.8935 33.2159 19.9277 33.2108 19.9942L33.0727 21.6988C33.0543 21.879 33.0167 22.2871 33.3479 22.5359C33.6832 22.7878 34.076 22.6291 34.2497 22.5589L35.8158 21.9062C35.8477 21.896 35.926 21.896 35.9536 21.9046L37.5298 22.5612C37.629 22.6013 37.8068 22.6732 38.005 22.6732C38.142 22.6732 38.2887 22.6388 38.4258 22.5358C38.757 22.287 38.7194 21.879 38.7011 21.6987L38.5632 19.9969C38.5579 19.9284 38.5598 19.8936 38.5616 19.878L39.6982 18.5084ZM37.6565 19.1336C37.3845 19.455 37.3736 19.8114 37.3947 20.0889L37.4908 21.2756L36.4041 20.8228C36.0946 20.6939 35.6788 20.6939 35.3694 20.8228L34.2827 21.2756L34.3791 20.086C34.4 19.8114 34.3891 19.455 34.1207 19.1379L33.29 18.1367L34.5755 17.8179C34.9632 17.721 35.1035 17.528 35.2242 17.322L35.8877 16.2164L36.5259 17.2819L36.5496 17.322C36.6702 17.5281 36.8106 17.7211 37.1993 17.8181L38.4839 18.1367L37.6565 19.1336Z" fill="white"/>
<path d="M33.7493 6.21023C35.3657 6.21023 36.6807 4.89664 36.6807 3.28203C36.6807 1.66617 35.3657 0.351562 33.7493 0.351562C32.133 0.351562 30.818 1.66617 30.818 3.28203C30.818 4.89664 32.133 6.21023 33.7493 6.21023ZM33.7493 1.52344C34.7195 1.52344 35.5088 2.31234 35.5088 3.28203C35.5088 4.25047 34.7195 5.03836 33.7493 5.03836C32.7792 5.03836 31.9899 4.25047 31.9899 3.28203C31.9899 2.31234 32.7792 1.52344 33.7493 1.52344Z" fill="white"/>
</svg>
