<svg width="20" height="20" viewBox="0 0 20 20" fill="none" xmlns="http://www.w3.org/2000/svg">
<g clip-path="url(#clip0)">
<path d="M19.2499 19.1L13.7999 13.4C15.1999 12 16.0499 10.1 16.0499 7.95C16.0499 3.7 12.5999 0.25 8.3499 0.25C4.0999 0.3 0.649902 3.75 0.649902 8C0.649902 12.25 4.0999 15.7 8.3499 15.7C10.1999 15.7 11.8999 15.05 13.2499 13.95L18.6999 19.65C18.7499 19.75 18.8499 19.75 18.9499 19.75C19.0499 19.75 19.1499 19.7 19.1999 19.65C19.3999 19.45 19.3999 19.25 19.2499 19.1ZM8.3499 14.95C4.4999 14.95 1.3999 11.85 1.3999 8C1.3999 4.15 4.4999 1.05 8.3499 1.05C12.1999 1.05 15.2999 4.15 15.2999 8C15.2999 11.85 12.1999 14.95 8.3499 14.95Z" fill="#1F2128" stroke="#FF7A00"/>
</g>
<defs>
<clipPath id="clip0">
<rect width="20" height="20" fill="white"/>
</clipPath>
</defs>
</svg>
