<svg width="15" height="15" viewBox="0 0 15 15" fill="none" xmlns="http://www.w3.org/2000/svg">
<path d="M7.5 15C11.6421 15 15 11.6421 15 7.5C15 3.35786 11.6421 0 7.5 0C3.35786 0 0 3.35786 0 7.5C0 11.6421 3.35786 15 7.5 15Z" fill="#039BE5"/>
<path d="M3.43192 7.33787L10.6632 4.54975C10.9988 4.4285 11.2919 4.63162 11.1832 5.13912L11.1838 5.1385L9.95254 10.9391C9.86129 11.3504 9.61692 11.4504 9.27504 11.2566L7.40004 9.87475L6.49567 10.746C6.39567 10.846 6.31129 10.9304 6.11754 10.9304L6.25067 9.02225L9.72567 5.88287C9.87692 5.74975 9.69192 5.67475 9.49254 5.80725L5.19817 8.511L3.34692 7.9335C2.94504 7.806 2.93629 7.53162 3.43192 7.33787Z" fill="white"/>
</svg>
