<svg width="15" height="15" viewBox="0 0 15 15" fill="none" xmlns="http://www.w3.org/2000/svg">
<path d="M7.49813 0H7.50187C11.6372 0 15 3.36375 15 7.5C15 9.14062 14.4712 10.6613 13.5722 11.8959L14.5069 14.6822L11.6241 13.7606C10.4381 14.5463 9.02344 15 7.49813 15C3.36281 15 0 11.6353 0 7.5C0 3.36469 3.36281 0 7.49813 0Z" fill="#4CAF50"/>
<path d="M3.13398 10.5913C3.31492 11.1022 4.03305 11.526 4.60586 11.6497C4.99773 11.7332 5.50961 11.7997 7.23273 11.0854C9.4368 10.1722 10.8562 7.93254 10.9668 7.78723C11.0727 7.64191 11.8574 6.60129 11.8574 5.52504C11.8574 4.44879 11.3109 3.92473 11.0905 3.69973C10.9096 3.51504 10.6105 3.43066 10.3237 3.43066C10.2309 3.43066 10.1474 3.43535 10.0724 3.4391C9.85211 3.44848 9.74148 3.4616 9.59617 3.80941C9.41523 4.24535 8.97461 5.3216 8.92211 5.43223C8.86867 5.54285 8.81523 5.69285 8.89023 5.83816C8.96055 5.98816 9.02242 6.05473 9.13305 6.18223C9.24367 6.30973 9.34867 6.40723 9.4593 6.5441C9.56055 6.66316 9.67492 6.79066 9.54742 7.01098C9.41992 7.2266 8.9793 7.94566 8.33055 8.52316C7.49336 9.26848 6.81461 9.5066 6.5718 9.60785C6.39086 9.68285 6.17523 9.66504 6.04305 9.52441C5.87523 9.34348 5.66805 9.04348 5.45711 8.74816C5.30711 8.53629 5.11773 8.51004 4.91898 8.58504C4.71648 8.65535 3.64492 9.18504 3.42461 9.29473C3.2043 9.40535 3.05898 9.45785 3.00555 9.55066C2.95305 9.64348 2.95305 10.0794 3.13398 10.5913Z" fill="#FAFAFA"/>
</svg>
